solid SHAPE STL
  facet normal  0.000000e+000  -0.000000e+000 -1.000000e+000
    outer loop
      vertex  7.815000e+001 -3.200000e+001  1.905000e+001
      vertex  8.035000e+001 -2.355000e+001  1.905000e+001
      vertex  8.035000e+001 -3.045000e+001  1.905000e+001
    endloop
  endfacet
  facet normal  0.000000e+000  -0.000000e+000 -1.000000e+000
    outer loop
      vertex  7.815000e+001 -3.200000e+001  1.905000e+001
      vertex  8.035000e+001 -3.045000e+001  1.905000e+001
      vertex  8.035436e+001 -3.050482e+001  1.905000e+001
    endloop
  endfacet
  facet normal  0.000000e+000  -0.000000e+000 -1.000000e+000
    outer loop
      vertex  7.815000e+001 -3.200000e+001  1.905000e+001
      vertex  8.035436e+001 -3.050482e+001  1.905000e+001
      vertex  8.036727e+001 -3.055831e+001  1.905000e+001
    endloop
  endfacet
  facet normal  0.000000e+000  -0.000000e+000 -1.000000e+000
    outer loop
      vertex  7.815000e+001 -3.200000e+001  1.905000e+001
      vertex  8.036727e+001 -3.055831e+001  1.905000e+001
      vertex  8.038831e+001 -3.060907e+001  1.905000e+001
    endloop
  endfacet
  facet normal  0.000000e+000  -0.000000e+000 -1.000000e+000
    outer loop
      vertex  7.815000e+001 -3.200000e+001  1.905000e+001
      vertex  8.038831e+001 -3.060907e+001  1.905000e+001
      vertex  8.041696e+001 -3.065583e+001  1.905000e+001
    endloop
  endfacet
  facet normal  0.000000e+000  -0.000000e+000 -1.000000e+000
    outer loop
      vertex  7.815000e+001 -3.200000e+001  1.905000e+001
      vertex  8.041696e+001 -3.065583e+001  1.905000e+001
      vertex  8.045252e+001 -3.069748e+001  1.905000e+001
    endloop
  endfacet
  facet normal  0.000000e+000  -0.000000e+000 -1.000000e+000
    outer loop
      vertex  7.815000e+001 -3.200000e+001  1.905000e+001
      vertex  8.045252e+001 -3.069748e+001  1.905000e+001
      vertex  8.049417e+001 -3.073304e+001  1.905000e+001
    endloop
  endfacet
  facet normal  0.000000e+000  -0.000000e+000 -1.000000e+000
    outer loop
      vertex  7.815000e+001 -3.200000e+001  1.905000e+001
      vertex  8.049417e+001 -3.073304e+001  1.905000e+001
      vertex  8.054093e+001 -3.076169e+001  1.905000e+001
    endloop
  endfacet
  facet normal  0.000000e+000  -0.000000e+000 -1.000000e+000
    outer loop
      vertex  7.815000e+001 -3.200000e+001  1.905000e+001
      vertex  8.054093e+001 -3.076169e+001  1.905000e+001
      vertex  8.059169e+001 -3.078273e+001  1.905000e+001
    endloop
  endfacet
  facet normal  0.000000e+000  -0.000000e+000 -1.000000e+000
    outer loop
      vertex  7.815000e+001 -3.200000e+001  1.905000e+001
      vertex  8.059169e+001 -3.078273e+001  1.905000e+001
      vertex  8.064518e+001 -3.079564e+001  1.905000e+001
    endloop
  endfacet
  facet normal  0.000000e+000  -0.000000e+000 -1.000000e+000
    outer loop
      vertex  7.815000e+001 -3.200000e+001  1.905000e+001
      vertex  8.064518e+001 -3.079564e+001  1.905000e+001
      vertex  8.070000e+001 -3.080000e+001  1.905000e+001
    endloop
  endfacet
  facet normal  0.000000e+000  0.000000e+000 -1.000000e+000
    outer loop
      vertex  7.815000e+001 -3.200000e+001  1.905000e+001
      vertex  8.070000e+001 -3.080000e+001  1.905000e+001
      vertex  7.915000e+001 -3.300000e+001  1.905000e+001
    endloop
  endfacet
  facet normal  0.000000e+000  0.000000e+000 -1.000000e+000
    outer loop
      vertex  7.815000e+001 -3.200000e+001  1.905000e+001
      vertex  7.915000e+001 -3.300000e+001  1.905000e+001
      vertex  7.895491e+001 -3.298079e+001  1.905000e+001
    endloop
  endfacet
  facet normal  0.000000e+000  0.000000e+000 -1.000000e+000
    outer loop
      vertex  7.815000e+001 -3.200000e+001  1.905000e+001
      vertex  7.895491e+001 -3.298079e+001  1.905000e+001
      vertex  7.876732e+001 -3.292388e+001  1.905000e+001
    endloop
  endfacet
  facet normal  0.000000e+000  0.000000e+000 -1.000000e+000
    outer loop
      vertex  7.815000e+001 -3.200000e+001  1.905000e+001
      vertex  7.876732e+001 -3.292388e+001  1.905000e+001
      vertex  7.859443e+001 -3.283147e+001  1.905000e+001
    endloop
  endfacet
  facet normal  0.000000e+000  0.000000e+000 -1.000000e+000
    outer loop
      vertex  7.815000e+001 -3.200000e+001  1.905000e+001
      vertex  7.859443e+001 -3.283147e+001  1.905000e+001
      vertex  7.844289e+001 -3.270711e+001  1.905000e+001
    endloop
  endfacet
  facet normal  0.000000e+000  0.000000e+000 -1.000000e+000
    outer loop
      vertex  7.815000e+001 -3.200000e+001  1.905000e+001
      vertex  7.844289e+001 -3.270711e+001  1.905000e+001
      vertex  7.831853e+001 -3.255557e+001  1.905000e+001
    endloop
  endfacet
  facet normal  0.000000e+000  0.000000e+000 -1.000000e+000
    outer loop
      vertex  7.815000e+001 -3.200000e+001  1.905000e+001
      vertex  7.831853e+001 -3.255557e+001  1.905000e+001
      vertex  7.822612e+001 -3.238268e+001  1.905000e+001
    endloop
  endfacet
  facet normal  0.000000e+000  0.000000e+000 -1.000000e+000
    outer loop
      vertex  7.815000e+001 -3.200000e+001  1.905000e+001
      vertex  7.822612e+001 -3.238268e+001  1.905000e+001
      vertex  7.816921e+001 -3.219509e+001  1.905000e+001
    endloop
  endfacet
  facet normal  -0.000000e+000  0.000000e+000 -1.000000e+000
    outer loop
      vertex  8.760000e+001 -3.080000e+001  1.905000e+001
      vertex  9.015000e+001 -3.200000e+001  1.905000e+001
      vertex  9.013078e+001 -3.219509e+001  1.905000e+001
    endloop
  endfacet
  facet normal  -0.000000e+000  0.000000e+000 -1.000000e+000
    outer loop
      vertex  8.760000e+001 -3.080000e+001  1.905000e+001
      vertex  9.013078e+001 -3.219509e+001  1.905000e+001
      vertex  9.007388e+001 -3.238268e+001  1.905000e+001
    endloop
  endfacet
  facet normal  -0.000000e+000  0.000000e+000 -1.000000e+000
    outer loop
      vertex  8.760000e+001 -3.080000e+001  1.905000e+001
      vertex  9.007388e+001 -3.238268e+001  1.905000e+001
      vertex  8.998147e+001 -3.255557e+001  1.905000e+001
    endloop
  endfacet
  facet normal  -0.000000e+000  0.000000e+000 -1.000000e+000
    outer loop
      vertex  8.760000e+001 -3.080000e+001  1.905000e+001
      vertex  8.998147e+001 -3.255557e+001  1.905000e+001
      vertex  8.985711e+001 -3.270711e+001  1.905000e+001
    endloop
  endfacet
  facet normal  -0.000000e+000  0.000000e+000 -1.000000e+000
    outer loop
      vertex  8.760000e+001 -3.080000e+001  1.905000e+001
      vertex  8.985711e+001 -3.270711e+001  1.905000e+001
      vertex  8.970557e+001 -3.283147e+001  1.905000e+001
    endloop
  endfacet
  facet normal  -0.000000e+000  0.000000e+000 -1.000000e+000
    outer loop
      vertex  8.760000e+001 -3.080000e+001  1.905000e+001
      vertex  8.970557e+001 -3.283147e+001  1.905000e+001
      vertex  8.953268e+001 -3.292388e+001  1.905000e+001
    endloop
  endfacet
  facet normal  -0.000000e+000  0.000000e+000 -1.000000e+000
    outer loop
      vertex  8.760000e+001 -3.080000e+001  1.905000e+001
      vertex  8.953268e+001 -3.292388e+001  1.905000e+001
      vertex  8.934509e+001 -3.298079e+001  1.905000e+001
    endloop
  endfacet
  facet normal  -0.000000e+000  0.000000e+000 -1.000000e+000
    outer loop
      vertex  8.760000e+001 -3.080000e+001  1.905000e+001
      vertex  8.934509e+001 -3.298079e+001  1.905000e+001
      vertex  8.915000e+001 -3.300000e+001  1.905000e+001
    endloop
  endfacet
  facet normal  0.000000e+000  0.000000e+000 -9.999999e-001
    outer loop
      vertex  8.760000e+001 -3.080000e+001  1.905000e+001
      vertex  8.915000e+001 -3.300000e+001  1.905000e+001
      vertex  7.915000e+001 -3.300000e+001  1.905000e+001
    endloop
  endfacet
  facet normal  0.000000e+000  0.000000e+000 -9.999999e-001
    outer loop
      vertex  8.760000e+001 -3.080000e+001  1.905000e+001
      vertex  7.915000e+001 -3.300000e+001  1.905000e+001
      vertex  8.070000e+001 -3.080000e+001  1.905000e+001
    endloop
  endfacet
  facet normal  0.000000e+000  -0.000000e+000 -1.000000e+000
    outer loop
      vertex  7.815000e+001 -2.200000e+001  1.905000e+001
      vertex  7.816921e+001 -2.180491e+001  1.905000e+001
      vertex  7.822612e+001 -2.161732e+001  1.905000e+001
    endloop
  endfacet
  facet normal  0.000000e+000  -0.000000e+000 -1.000000e+000
    outer loop
      vertex  7.815000e+001 -2.200000e+001  1.905000e+001
      vertex  7.822612e+001 -2.161732e+001  1.905000e+001
      vertex  7.831853e+001 -2.144443e+001  1.905000e+001
    endloop
  endfacet
  facet normal  0.000000e+000  -0.000000e+000 -1.000000e+000
    outer loop
      vertex  7.815000e+001 -2.200000e+001  1.905000e+001
      vertex  7.831853e+001 -2.144443e+001  1.905000e+001
      vertex  7.844289e+001 -2.129289e+001  1.905000e+001
    endloop
  endfacet
  facet normal  0.000000e+000  -0.000000e+000 -1.000000e+000
    outer loop
      vertex  7.815000e+001 -2.200000e+001  1.905000e+001
      vertex  7.844289e+001 -2.129289e+001  1.905000e+001
      vertex  7.859443e+001 -2.116853e+001  1.905000e+001
    endloop
  endfacet
  facet normal  0.000000e+000  -0.000000e+000 -9.999999e-001
    outer loop
      vertex  7.815000e+001 -2.200000e+001  1.905000e+001
      vertex  7.859443e+001 -2.116853e+001  1.905000e+001
      vertex  7.876732e+001 -2.107612e+001  1.905000e+001
    endloop
  endfacet
  facet normal  0.000000e+000  -0.000000e+000 -1.000000e+000
    outer loop
      vertex  7.815000e+001 -2.200000e+001  1.905000e+001
      vertex  7.876732e+001 -2.107612e+001  1.905000e+001
      vertex  7.895491e+001 -2.101921e+001  1.905000e+001
    endloop
  endfacet
  facet normal  0.000000e+000  -0.000000e+000 -1.000000e+000
    outer loop
      vertex  7.815000e+001 -2.200000e+001  1.905000e+001
      vertex  7.895491e+001 -2.101921e+001  1.905000e+001
      vertex  7.915000e+001 -2.100000e+001  1.905000e+001
    endloop
  endfacet
  facet normal  0.000000e+000  -0.000000e+000 -1.000000e+000
    outer loop
      vertex  7.815000e+001 -2.200000e+001  1.905000e+001
      vertex  7.915000e+001 -2.100000e+001  1.905000e+001
      vertex  8.070000e+001 -2.320000e+001  1.905000e+001
    endloop
  endfacet
  facet normal  -0.000000e+000  0.000000e+000 -1.000000e+000
    outer loop
      vertex  7.815000e+001 -2.200000e+001  1.905000e+001
      vertex  8.070000e+001 -2.320000e+001  1.905000e+001
      vertex  8.064518e+001 -2.320436e+001  1.905000e+001
    endloop
  endfacet
  facet normal  -0.000000e+000  0.000000e+000 -1.000000e+000
    outer loop
      vertex  7.815000e+001 -2.200000e+001  1.905000e+001
      vertex  8.064518e+001 -2.320436e+001  1.905000e+001
      vertex  8.059169e+001 -2.321727e+001  1.905000e+001
    endloop
  endfacet
  facet normal  -0.000000e+000  0.000000e+000 -1.000000e+000
    outer loop
      vertex  7.815000e+001 -2.200000e+001  1.905000e+001
      vertex  8.059169e+001 -2.321727e+001  1.905000e+001
      vertex  8.054093e+001 -2.323831e+001  1.905000e+001
    endloop
  endfacet
  facet normal  -0.000000e+000  0.000000e+000 -1.000000e+000
    outer loop
      vertex  7.815000e+001 -2.200000e+001  1.905000e+001
      vertex  8.054093e+001 -2.323831e+001  1.905000e+001
      vertex  8.049417e+001 -2.326696e+001  1.905000e+001
    endloop
  endfacet
  facet normal  -0.000000e+000  0.000000e+000 -1.000000e+000
    outer loop
      vertex  7.815000e+001 -2.200000e+001  1.905000e+001
      vertex  8.049417e+001 -2.326696e+001  1.905000e+001
      vertex  8.045252e+001 -2.330252e+001  1.905000e+001
    endloop
  endfacet
  facet normal  -0.000000e+000  0.000000e+000 -1.000000e+000
    outer loop
      vertex  7.815000e+001 -2.200000e+001  1.905000e+001
      vertex  8.045252e+001 -2.330252e+001  1.905000e+001
      vertex  8.041696e+001 -2.334417e+001  1.905000e+001
    endloop
  endfacet
  facet normal  -0.000000e+000  0.000000e+000 -1.000000e+000
    outer loop
      vertex  7.815000e+001 -2.200000e+001  1.905000e+001
      vertex  8.041696e+001 -2.334417e+001  1.905000e+001
      vertex  8.038831e+001 -2.339093e+001  1.905000e+001
    endloop
  endfacet
  facet normal  -0.000000e+000  0.000000e+000 -1.000000e+000
    outer loop
      vertex  7.815000e+001 -2.200000e+001  1.905000e+001
      vertex  8.038831e+001 -2.339093e+001  1.905000e+001
      vertex  8.036727e+001 -2.344169e+001  1.905000e+001
    endloop
  endfacet
  facet normal  -0.000000e+000  0.000000e+000 -1.000000e+000
    outer loop
      vertex  7.815000e+001 -2.200000e+001  1.905000e+001
      vertex  8.036727e+001 -2.344169e+001  1.905000e+001
      vertex  8.035436e+001 -2.349518e+001  1.905000e+001
    endloop
  endfacet
  facet normal  -0.000000e+000  0.000000e+000 -1.000000e+000
    outer loop
      vertex  7.815000e+001 -2.200000e+001  1.905000e+001
      vertex  8.035436e+001 -2.349518e+001  1.905000e+001
      vertex  8.035000e+001 -2.355000e+001  1.905000e+001
    endloop
  endfacet
  facet normal  -0.000000e+000  0.000000e+000 -1.000000e+000
    outer loop
      vertex  7.815000e+001 -2.200000e+001  1.905000e+001
      vertex  8.035000e+001 -2.355000e+001  1.905000e+001
      vertex  7.815000e+001 -3.200000e+001  1.905000e+001
    endloop
  endfacet
  facet normal  0.000000e+000  0.000000e+000 -9.999999e-001
    outer loop
      vertex  8.760000e+001 -2.320000e+001  1.905000e+001
      vertex  8.070000e+001 -2.320000e+001  1.905000e+001
      vertex  7.915000e+001 -2.100000e+001  1.905000e+001
    endloop
  endfacet
  facet normal  0.000000e+000  0.000000e+000 -9.999999e-001
    outer loop
      vertex  8.760000e+001 -2.320000e+001  1.905000e+001
      vertex  7.915000e+001 -2.100000e+001  1.905000e+001
      vertex  8.915000e+001 -2.100000e+001  1.905000e+001
    endloop
  endfacet
  facet normal  0.000000e+000  -0.000000e+000 -1.000000e+000
    outer loop
      vertex  8.760000e+001 -2.320000e+001  1.905000e+001
      vertex  8.915000e+001 -2.100000e+001  1.905000e+001
      vertex  8.934509e+001 -2.101921e+001  1.905000e+001
    endloop
  endfacet
  facet normal  0.000000e+000  -0.000000e+000 -1.000000e+000
    outer loop
      vertex  8.760000e+001 -2.320000e+001  1.905000e+001
      vertex  8.934509e+001 -2.101921e+001  1.905000e+001
      vertex  8.953268e+001 -2.107612e+001  1.905000e+001
    endloop
  endfacet
  facet normal  0.000000e+000  -0.000000e+000 -1.000000e+000
    outer loop
      vertex  8.760000e+001 -2.320000e+001  1.905000e+001
      vertex  8.953268e+001 -2.107612e+001  1.905000e+001
      vertex  8.970557e+001 -2.116853e+001  1.905000e+001
    endloop
  endfacet
  facet normal  0.000000e+000  -0.000000e+000 -1.000000e+000
    outer loop
      vertex  8.760000e+001 -2.320000e+001  1.905000e+001
      vertex  8.970557e+001 -2.116853e+001  1.905000e+001
      vertex  8.985711e+001 -2.129289e+001  1.905000e+001
    endloop
  endfacet
  facet normal  0.000000e+000  -0.000000e+000 -1.000000e+000
    outer loop
      vertex  8.760000e+001 -2.320000e+001  1.905000e+001
      vertex  8.985711e+001 -2.129289e+001  1.905000e+001
      vertex  8.998147e+001 -2.144443e+001  1.905000e+001
    endloop
  endfacet
  facet normal  0.000000e+000  -0.000000e+000 -1.000000e+000
    outer loop
      vertex  8.760000e+001 -2.320000e+001  1.905000e+001
      vertex  8.998147e+001 -2.144443e+001  1.905000e+001
      vertex  9.007388e+001 -2.161732e+001  1.905000e+001
    endloop
  endfacet
  facet normal  0.000000e+000  -0.000000e+000 -1.000000e+000
    outer loop
      vertex  8.760000e+001 -2.320000e+001  1.905000e+001
      vertex  9.007388e+001 -2.161732e+001  1.905000e+001
      vertex  9.013078e+001 -2.180491e+001  1.905000e+001
    endloop
  endfacet
  facet normal  0.000000e+000  -0.000000e+000 -1.000000e+000
    outer loop
      vertex  8.760000e+001 -2.320000e+001  1.905000e+001
      vertex  9.013078e+001 -2.180491e+001  1.905000e+001
      vertex  9.015000e+001 -2.200000e+001  1.905000e+001
    endloop
  endfacet
  facet normal  0.000000e+000  0.000000e+000 -1.000000e+000
    outer loop
      vertex  9.015000e+001 -3.200000e+001  1.905000e+001
      vertex  8.760000e+001 -3.080000e+001  1.905000e+001
      vertex  8.765482e+001 -3.079564e+001  1.905000e+001
    endloop
  endfacet
  facet normal  0.000000e+000  0.000000e+000 -1.000000e+000
    outer loop
      vertex  9.015000e+001 -3.200000e+001  1.905000e+001
      vertex  8.765482e+001 -3.079564e+001  1.905000e+001
      vertex  8.770831e+001 -3.078273e+001  1.905000e+001
    endloop
  endfacet
  facet normal  0.000000e+000  0.000000e+000 -1.000000e+000
    outer loop
      vertex  9.015000e+001 -3.200000e+001  1.905000e+001
      vertex  8.770831e+001 -3.078273e+001  1.905000e+001
      vertex  8.775907e+001 -3.076169e+001  1.905000e+001
    endloop
  endfacet
  facet normal  0.000000e+000  0.000000e+000 -1.000000e+000
    outer loop
      vertex  9.015000e+001 -3.200000e+001  1.905000e+001
      vertex  8.775907e+001 -3.076169e+001  1.905000e+001
      vertex  8.780583e+001 -3.073304e+001  1.905000e+001
    endloop
  endfacet
  facet normal  0.000000e+000  0.000000e+000 -1.000000e+000
    outer loop
      vertex  9.015000e+001 -3.200000e+001  1.905000e+001
      vertex  8.780583e+001 -3.073304e+001  1.905000e+001
      vertex  8.784748e+001 -3.069748e+001  1.905000e+001
    endloop
  endfacet
  facet normal  0.000000e+000  0.000000e+000 -1.000000e+000
    outer loop
      vertex  9.015000e+001 -3.200000e+001  1.905000e+001
      vertex  8.784748e+001 -3.069748e+001  1.905000e+001
      vertex  8.788304e+001 -3.065583e+001  1.905000e+001
    endloop
  endfacet
  facet normal  0.000000e+000  0.000000e+000 -1.000000e+000
    outer loop
      vertex  9.015000e+001 -3.200000e+001  1.905000e+001
      vertex  8.788304e+001 -3.065583e+001  1.905000e+001
      vertex  8.791169e+001 -3.060907e+001  1.905000e+001
    endloop
  endfacet
  facet normal  0.000000e+000  0.000000e+000 -1.000000e+000
    outer loop
      vertex  9.015000e+001 -3.200000e+001  1.905000e+001
      vertex  8.791169e+001 -3.060907e+001  1.905000e+001
      vertex  8.793273e+001 -3.055831e+001  1.905000e+001
    endloop
  endfacet
  facet normal  0.000000e+000  0.000000e+000 -1.000000e+000
    outer loop
      vertex  9.015000e+001 -3.200000e+001  1.905000e+001
      vertex  8.793273e+001 -3.055831e+001  1.905000e+001
      vertex  8.794563e+001 -3.050482e+001  1.905000e+001
    endloop
  endfacet
  facet normal  0.000000e+000  0.000000e+000 -1.000000e+000
    outer loop
      vertex  9.015000e+001 -3.200000e+001  1.905000e+001
      vertex  8.794563e+001 -3.050482e+001  1.905000e+001
      vertex  8.795000e+001 -3.045000e+001  1.905000e+001
    endloop
  endfacet
  facet normal  0.000000e+000  0.000000e+000 -9.999999e-001
    outer loop
      vertex  9.015000e+001 -3.200000e+001  1.905000e+001
      vertex  8.795000e+001 -3.045000e+001  1.905000e+001
      vertex  8.795000e+001 -2.355000e+001  1.905000e+001
    endloop
  endfacet
  facet normal  0.000000e+000  0.000000e+000 -1.000000e+000
    outer loop
      vertex  9.015000e+001 -2.200000e+001  1.905000e+001
      vertex  9.015000e+001 -3.200000e+001  1.905000e+001
      vertex  8.795000e+001 -2.355000e+001  1.905000e+001
    endloop
  endfacet
  facet normal  0.000000e+000  0.000000e+000 -1.000000e+000
    outer loop
      vertex  9.015000e+001 -2.200000e+001  1.905000e+001
      vertex  8.795000e+001 -2.355000e+001  1.905000e+001
      vertex  8.794563e+001 -2.349518e+001  1.905000e+001
    endloop
  endfacet
  facet normal  0.000000e+000  0.000000e+000 -1.000000e+000
    outer loop
      vertex  9.015000e+001 -2.200000e+001  1.905000e+001
      vertex  8.794563e+001 -2.349518e+001  1.905000e+001
      vertex  8.793273e+001 -2.344169e+001  1.905000e+001
    endloop
  endfacet
  facet normal  0.000000e+000  0.000000e+000 -1.000000e+000
    outer loop
      vertex  9.015000e+001 -2.200000e+001  1.905000e+001
      vertex  8.793273e+001 -2.344169e+001  1.905000e+001
      vertex  8.791169e+001 -2.339093e+001  1.905000e+001
    endloop
  endfacet
  facet normal  0.000000e+000  0.000000e+000 -1.000000e+000
    outer loop
      vertex  9.015000e+001 -2.200000e+001  1.905000e+001
      vertex  8.791169e+001 -2.339093e+001  1.905000e+001
      vertex  8.788304e+001 -2.334417e+001  1.905000e+001
    endloop
  endfacet
  facet normal  0.000000e+000  0.000000e+000 -1.000000e+000
    outer loop
      vertex  9.015000e+001 -2.200000e+001  1.905000e+001
      vertex  8.788304e+001 -2.334417e+001  1.905000e+001
      vertex  8.784748e+001 -2.330252e+001  1.905000e+001
    endloop
  endfacet
  facet normal  0.000000e+000  0.000000e+000 -1.000000e+000
    outer loop
      vertex  9.015000e+001 -2.200000e+001  1.905000e+001
      vertex  8.784748e+001 -2.330252e+001  1.905000e+001
      vertex  8.780583e+001 -2.326696e+001  1.905000e+001
    endloop
  endfacet
  facet normal  0.000000e+000  0.000000e+000 -1.000000e+000
    outer loop
      vertex  9.015000e+001 -2.200000e+001  1.905000e+001
      vertex  8.780583e+001 -2.326696e+001  1.905000e+001
      vertex  8.775907e+001 -2.323831e+001  1.905000e+001
    endloop
  endfacet
  facet normal  0.000000e+000  0.000000e+000 -1.000000e+000
    outer loop
      vertex  9.015000e+001 -2.200000e+001  1.905000e+001
      vertex  8.775907e+001 -2.323831e+001  1.905000e+001
      vertex  8.770831e+001 -2.321727e+001  1.905000e+001
    endloop
  endfacet
  facet normal  0.000000e+000  0.000000e+000 -1.000000e+000
    outer loop
      vertex  9.015000e+001 -2.200000e+001  1.905000e+001
      vertex  8.770831e+001 -2.321727e+001  1.905000e+001
      vertex  8.765482e+001 -2.320436e+001  1.905000e+001
    endloop
  endfacet
  facet normal  0.000000e+000  0.000000e+000 -1.000000e+000
    outer loop
      vertex  9.015000e+001 -2.200000e+001  1.905000e+001
      vertex  8.765482e+001 -2.320436e+001  1.905000e+001
      vertex  8.760000e+001 -2.320000e+001  1.905000e+001
    endloop
  endfacet
  facet normal -7.935922e-002  9.968461e-001  0.000000e+000
    outer loop
      vertex  8.070000e+001 -2.320000e+001  1.905000e+001
      vertex  8.070000e+001 -2.320000e+001  1.705000e+001
      vertex  8.064518e+001 -2.320436e+001  1.905000e+001
    endloop
  endfacet
  facet normal -7.935922e-002  9.968461e-001  0.000000e+000
    outer loop
      vertex  8.064518e+001 -2.320436e+001  1.905000e+001
      vertex  8.070000e+001 -2.320000e+001  1.705000e+001
      vertex  8.064518e+001 -2.320436e+001  1.705000e+001
    endloop
  endfacet
  facet normal -2.345016e-001  9.721157e-001  0.000000e+000
    outer loop
      vertex  8.064518e+001 -2.320436e+001  1.905000e+001
      vertex  8.064518e+001 -2.320436e+001  1.705000e+001
      vertex  8.059169e+001 -2.321727e+001  1.905000e+001
    endloop
  endfacet
  facet normal -2.345016e-001  9.721157e-001  0.000000e+000
    outer loop
      vertex  8.059169e+001 -2.321727e+001  1.905000e+001
      vertex  8.064518e+001 -2.320436e+001  1.705000e+001
      vertex  8.059169e+001 -2.321727e+001  1.705000e+001
    endloop
  endfacet
  facet normal -3.829782e-001  9.237574e-001  0.000000e+000
    outer loop
      vertex  8.059169e+001 -2.321727e+001  1.905000e+001
      vertex  8.059169e+001 -2.321727e+001  1.705000e+001
      vertex  8.054093e+001 -2.323831e+001  1.905000e+001
    endloop
  endfacet
  facet normal -3.829782e-001  9.237574e-001  0.000000e+000
    outer loop
      vertex  8.054093e+001 -2.323831e+001  1.905000e+001
      vertex  8.059169e+001 -2.321727e+001  1.705000e+001
      vertex  8.054093e+001 -2.323831e+001  1.705000e+001
    endloop
  endfacet
  facet normal -5.223867e-001  8.527087e-001  0.000000e+000
    outer loop
      vertex  8.054093e+001 -2.323831e+001  1.905000e+001
      vertex  8.054093e+001 -2.323831e+001  1.705000e+001
      vertex  8.049417e+001 -2.326696e+001  1.905000e+001
    endloop
  endfacet
  facet normal -5.223867e-001  8.527087e-001  0.000000e+000
    outer loop
      vertex  8.049417e+001 -2.326696e+001  1.905000e+001
      vertex  8.054093e+001 -2.323831e+001  1.705000e+001
      vertex  8.049417e+001 -2.326696e+001  1.705000e+001
    endloop
  endfacet
  facet normal -6.493332e-001  7.605041e-001  0.000000e+000
    outer loop
      vertex  8.049417e+001 -2.326696e+001  1.905000e+001
      vertex  8.049417e+001 -2.326696e+001  1.705000e+001
      vertex  8.045252e+001 -2.330252e+001  1.905000e+001
    endloop
  endfacet
  facet normal -6.493332e-001  7.605041e-001  0.000000e+000
    outer loop
      vertex  8.045252e+001 -2.330252e+001  1.905000e+001
      vertex  8.049417e+001 -2.326696e+001  1.705000e+001
      vertex  8.045252e+001 -2.330252e+001  1.705000e+001
    endloop
  endfacet
  facet normal -7.605041e-001  6.493332e-001  0.000000e+000
    outer loop
      vertex  8.045252e+001 -2.330252e+001  1.905000e+001
      vertex  8.045252e+001 -2.330252e+001  1.705000e+001
      vertex  8.041696e+001 -2.334417e+001  1.905000e+001
    endloop
  endfacet
  facet normal -7.605041e-001  6.493332e-001  0.000000e+000
    outer loop
      vertex  8.041696e+001 -2.334417e+001  1.905000e+001
      vertex  8.045252e+001 -2.330252e+001  1.705000e+001
      vertex  8.041696e+001 -2.334417e+001  1.705000e+001
    endloop
  endfacet
  facet normal -8.527027e-001  5.223965e-001  0.000000e+000
    outer loop
      vertex  8.041696e+001 -2.334417e+001  1.905000e+001
      vertex  8.041696e+001 -2.334417e+001  1.705000e+001
      vertex  8.038831e+001 -2.339093e+001  1.905000e+001
    endloop
  endfacet
  facet normal -8.527027e-001  5.223965e-001  0.000000e+000
    outer loop
      vertex  8.038831e+001 -2.339093e+001  1.905000e+001
      vertex  8.041696e+001 -2.334417e+001  1.705000e+001
      vertex  8.038831e+001 -2.339093e+001  1.705000e+001
    endloop
  endfacet
  facet normal -9.237697e-001  3.829486e-001  0.000000e+000
    outer loop
      vertex  8.038831e+001 -2.339093e+001  1.905000e+001
      vertex  8.038831e+001 -2.339093e+001  1.705000e+001
      vertex  8.036727e+001 -2.344169e+001  1.905000e+001
    endloop
  endfacet
  facet normal -9.237697e-001  3.829486e-001  0.000000e+000
    outer loop
      vertex  8.036727e+001 -2.344169e+001  1.905000e+001
      vertex  8.038831e+001 -2.339093e+001  1.705000e+001
      vertex  8.036727e+001 -2.344169e+001  1.705000e+001
    endloop
  endfacet
  facet normal -9.720939e-001  2.345919e-001  0.000000e+000
    outer loop
      vertex  8.036727e+001 -2.344169e+001  1.905000e+001
      vertex  8.036727e+001 -2.344169e+001  1.705000e+001
      vertex  8.035436e+001 -2.349518e+001  1.905000e+001
    endloop
  endfacet
  facet normal -9.720939e-001  2.345919e-001  0.000000e+000
    outer loop
      vertex  8.035436e+001 -2.349518e+001  1.905000e+001
      vertex  8.036727e+001 -2.344169e+001  1.705000e+001
      vertex  8.035436e+001 -2.349518e+001  1.705000e+001
    endloop
  endfacet
  facet normal -9.968463e-001  7.935648e-002  0.000000e+000
    outer loop
      vertex  8.035436e+001 -2.349518e+001  1.905000e+001
      vertex  8.035436e+001 -2.349518e+001  1.705000e+001
      vertex  8.035000e+001 -2.355000e+001  1.905000e+001
    endloop
  endfacet
  facet normal -9.968463e-001  7.935648e-002  0.000000e+000
    outer loop
      vertex  8.035000e+001 -2.355000e+001  1.905000e+001
      vertex  8.035436e+001 -2.349518e+001  1.705000e+001
      vertex  8.035000e+001 -2.355000e+001  1.705000e+001
    endloop
  endfacet
  facet normal -1.000000e+000  0.000000e+000  0.000000e+000
    outer loop
      vertex  8.035000e+001 -3.045000e+001  1.705000e+001
      vertex  8.035000e+001 -3.045000e+001  1.905000e+001
      vertex  8.035000e+001 -2.355000e+001  1.705000e+001
    endloop
  endfacet
  facet normal -1.000000e+000  0.000000e+000  0.000000e+000
    outer loop
      vertex  8.035000e+001 -2.355000e+001  1.705000e+001
      vertex  8.035000e+001 -3.045000e+001  1.905000e+001
      vertex  8.035000e+001 -2.355000e+001  1.905000e+001
    endloop
  endfacet
  facet normal -9.968463e-001 -7.935648e-002  0.000000e+000
    outer loop
      vertex  8.035000e+001 -3.045000e+001  1.905000e+001
      vertex  8.035000e+001 -3.045000e+001  1.705000e+001
      vertex  8.035436e+001 -3.050482e+001  1.905000e+001
    endloop
  endfacet
  facet normal -9.968463e-001 -7.935648e-002  -0.000000e+000
    outer loop
      vertex  8.035436e+001 -3.050482e+001  1.905000e+001
      vertex  8.035000e+001 -3.045000e+001  1.705000e+001
      vertex  8.035436e+001 -3.050482e+001  1.705000e+001
    endloop
  endfacet
  facet normal -9.720939e-001 -2.345919e-001  0.000000e+000
    outer loop
      vertex  8.035436e+001 -3.050482e+001  1.905000e+001
      vertex  8.035436e+001 -3.050482e+001  1.705000e+001
      vertex  8.036727e+001 -3.055831e+001  1.905000e+001
    endloop
  endfacet
  facet normal -9.720939e-001 -2.345919e-001  -0.000000e+000
    outer loop
      vertex  8.036727e+001 -3.055831e+001  1.905000e+001
      vertex  8.035436e+001 -3.050482e+001  1.705000e+001
      vertex  8.036727e+001 -3.055831e+001  1.705000e+001
    endloop
  endfacet
  facet normal -9.237697e-001 -3.829486e-001  0.000000e+000
    outer loop
      vertex  8.036727e+001 -3.055831e+001  1.905000e+001
      vertex  8.036727e+001 -3.055831e+001  1.705000e+001
      vertex  8.038831e+001 -3.060907e+001  1.905000e+001
    endloop
  endfacet
  facet normal -9.237697e-001 -3.829486e-001  -0.000000e+000
    outer loop
      vertex  8.038831e+001 -3.060907e+001  1.905000e+001
      vertex  8.036727e+001 -3.055831e+001  1.705000e+001
      vertex  8.038831e+001 -3.060907e+001  1.705000e+001
    endloop
  endfacet
  facet normal -8.527027e-001 -5.223965e-001  0.000000e+000
    outer loop
      vertex  8.038831e+001 -3.060907e+001  1.905000e+001
      vertex  8.038831e+001 -3.060907e+001  1.705000e+001
      vertex  8.041696e+001 -3.065583e+001  1.905000e+001
    endloop
  endfacet
  facet normal -8.527027e-001 -5.223965e-001  -0.000000e+000
    outer loop
      vertex  8.041696e+001 -3.065583e+001  1.905000e+001
      vertex  8.038831e+001 -3.060907e+001  1.705000e+001
      vertex  8.041696e+001 -3.065583e+001  1.705000e+001
    endloop
  endfacet
  facet normal -7.605041e-001 -6.493332e-001  0.000000e+000
    outer loop
      vertex  8.041696e+001 -3.065583e+001  1.905000e+001
      vertex  8.041696e+001 -3.065583e+001  1.705000e+001
      vertex  8.045252e+001 -3.069748e+001  1.905000e+001
    endloop
  endfacet
  facet normal -7.605041e-001 -6.493332e-001  -0.000000e+000
    outer loop
      vertex  8.045252e+001 -3.069748e+001  1.905000e+001
      vertex  8.041696e+001 -3.065583e+001  1.705000e+001
      vertex  8.045252e+001 -3.069748e+001  1.705000e+001
    endloop
  endfacet
  facet normal -6.493332e-001 -7.605041e-001  0.000000e+000
    outer loop
      vertex  8.045252e+001 -3.069748e+001  1.905000e+001
      vertex  8.045252e+001 -3.069748e+001  1.705000e+001
      vertex  8.049417e+001 -3.073304e+001  1.905000e+001
    endloop
  endfacet
  facet normal -6.493332e-001 -7.605041e-001  -0.000000e+000
    outer loop
      vertex  8.049417e+001 -3.073304e+001  1.905000e+001
      vertex  8.045252e+001 -3.069748e+001  1.705000e+001
      vertex  8.049417e+001 -3.073304e+001  1.705000e+001
    endloop
  endfacet
  facet normal -5.223867e-001 -8.527087e-001  0.000000e+000
    outer loop
      vertex  8.049417e+001 -3.073304e+001  1.905000e+001
      vertex  8.049417e+001 -3.073304e+001  1.705000e+001
      vertex  8.054093e+001 -3.076169e+001  1.905000e+001
    endloop
  endfacet
  facet normal -5.223867e-001 -8.527087e-001  -0.000000e+000
    outer loop
      vertex  8.054093e+001 -3.076169e+001  1.905000e+001
      vertex  8.049417e+001 -3.073304e+001  1.705000e+001
      vertex  8.054093e+001 -3.076169e+001  1.705000e+001
    endloop
  endfacet
  facet normal -3.829782e-001 -9.237574e-001  0.000000e+000
    outer loop
      vertex  8.054093e+001 -3.076169e+001  1.905000e+001
      vertex  8.054093e+001 -3.076169e+001  1.705000e+001
      vertex  8.059169e+001 -3.078273e+001  1.905000e+001
    endloop
  endfacet
  facet normal -3.829782e-001 -9.237574e-001  -0.000000e+000
    outer loop
      vertex  8.059169e+001 -3.078273e+001  1.905000e+001
      vertex  8.054093e+001 -3.076169e+001  1.705000e+001
      vertex  8.059169e+001 -3.078273e+001  1.705000e+001
    endloop
  endfacet
  facet normal -2.345016e-001 -9.721157e-001  0.000000e+000
    outer loop
      vertex  8.059169e+001 -3.078273e+001  1.905000e+001
      vertex  8.059169e+001 -3.078273e+001  1.705000e+001
      vertex  8.064518e+001 -3.079564e+001  1.905000e+001
    endloop
  endfacet
  facet normal -2.345016e-001 -9.721157e-001  -0.000000e+000
    outer loop
      vertex  8.064518e+001 -3.079564e+001  1.905000e+001
      vertex  8.059169e+001 -3.078273e+001  1.705000e+001
      vertex  8.064518e+001 -3.079564e+001  1.705000e+001
    endloop
  endfacet
  facet normal -7.935922e-002 -9.968461e-001  0.000000e+000
    outer loop
      vertex  8.064518e+001 -3.079564e+001  1.905000e+001
      vertex  8.064518e+001 -3.079564e+001  1.705000e+001
      vertex  8.070000e+001 -3.080000e+001  1.905000e+001
    endloop
  endfacet
  facet normal -7.935922e-002 -9.968461e-001  -0.000000e+000
    outer loop
      vertex  8.070000e+001 -3.080000e+001  1.905000e+001
      vertex  8.064518e+001 -3.079564e+001  1.705000e+001
      vertex  8.070000e+001 -3.080000e+001  1.705000e+001
    endloop
  endfacet
  facet normal  0.000000e+000 -1.000000e+000  -0.000000e+000
    outer loop
      vertex  8.760000e+001 -3.080000e+001  1.705000e+001
      vertex  8.760000e+001 -3.080000e+001  1.905000e+001
      vertex  8.070000e+001 -3.080000e+001  1.705000e+001
    endloop
  endfacet
  facet normal  0.000000e+000 -1.000000e+000  0.000000e+000
    outer loop
      vertex  8.070000e+001 -3.080000e+001  1.705000e+001
      vertex  8.760000e+001 -3.080000e+001  1.905000e+001
      vertex  8.070000e+001 -3.080000e+001  1.905000e+001
    endloop
  endfacet
  facet normal  7.935922e-002 -9.968461e-001  0.000000e+000
    outer loop
      vertex  8.760000e+001 -3.080000e+001  1.905000e+001
      vertex  8.760000e+001 -3.080000e+001  1.705000e+001
      vertex  8.765482e+001 -3.079564e+001  1.905000e+001
    endloop
  endfacet
  facet normal  7.935922e-002 -9.968461e-001  0.000000e+000
    outer loop
      vertex  8.765482e+001 -3.079564e+001  1.905000e+001
      vertex  8.760000e+001 -3.080000e+001  1.705000e+001
      vertex  8.765482e+001 -3.079564e+001  1.705000e+001
    endloop
  endfacet
  facet normal  2.344700e-001 -9.721233e-001  0.000000e+000
    outer loop
      vertex  8.765482e+001 -3.079564e+001  1.905000e+001
      vertex  8.765482e+001 -3.079564e+001  1.705000e+001
      vertex  8.770831e+001 -3.078273e+001  1.905000e+001
    endloop
  endfacet
  facet normal  2.344700e-001 -9.721233e-001  0.000000e+000
    outer loop
      vertex  8.770831e+001 -3.078273e+001  1.905000e+001
      vertex  8.765482e+001 -3.079564e+001  1.705000e+001
      vertex  8.770831e+001 -3.078273e+001  1.705000e+001
    endloop
  endfacet
  facet normal  3.829782e-001 -9.237574e-001  0.000000e+000
    outer loop
      vertex  8.770831e+001 -3.078273e+001  1.905000e+001
      vertex  8.770831e+001 -3.078273e+001  1.705000e+001
      vertex  8.775907e+001 -3.076169e+001  1.905000e+001
    endloop
  endfacet
  facet normal  3.829782e-001 -9.237574e-001  0.000000e+000
    outer loop
      vertex  8.775907e+001 -3.076169e+001  1.905000e+001
      vertex  8.770831e+001 -3.078273e+001  1.705000e+001
      vertex  8.775907e+001 -3.076169e+001  1.705000e+001
    endloop
  endfacet
  facet normal  5.223867e-001 -8.527087e-001  0.000000e+000
    outer loop
      vertex  8.775907e+001 -3.076169e+001  1.905000e+001
      vertex  8.775907e+001 -3.076169e+001  1.705000e+001
      vertex  8.780583e+001 -3.073304e+001  1.905000e+001
    endloop
  endfacet
  facet normal  5.223867e-001 -8.527087e-001  0.000000e+000
    outer loop
      vertex  8.780583e+001 -3.073304e+001  1.905000e+001
      vertex  8.775907e+001 -3.076169e+001  1.705000e+001
      vertex  8.780583e+001 -3.073304e+001  1.705000e+001
    endloop
  endfacet
  facet normal  6.493332e-001 -7.605041e-001  0.000000e+000
    outer loop
      vertex  8.780583e+001 -3.073304e+001  1.905000e+001
      vertex  8.780583e+001 -3.073304e+001  1.705000e+001
      vertex  8.784748e+001 -3.069748e+001  1.905000e+001
    endloop
  endfacet
  facet normal  6.493332e-001 -7.605041e-001  0.000000e+000
    outer loop
      vertex  8.784748e+001 -3.069748e+001  1.905000e+001
      vertex  8.780583e+001 -3.073304e+001  1.705000e+001
      vertex  8.784748e+001 -3.069748e+001  1.705000e+001
    endloop
  endfacet
  facet normal  7.605041e-001 -6.493332e-001  0.000000e+000
    outer loop
      vertex  8.784748e+001 -3.069748e+001  1.905000e+001
      vertex  8.784748e+001 -3.069748e+001  1.705000e+001
      vertex  8.788304e+001 -3.065583e+001  1.905000e+001
    endloop
  endfacet
  facet normal  7.605041e-001 -6.493332e-001  0.000000e+000
    outer loop
      vertex  8.788304e+001 -3.065583e+001  1.905000e+001
      vertex  8.784748e+001 -3.069748e+001  1.705000e+001
      vertex  8.788304e+001 -3.065583e+001  1.705000e+001
    endloop
  endfacet
  facet normal  8.527027e-001 -5.223965e-001  0.000000e+000
    outer loop
      vertex  8.788304e+001 -3.065583e+001  1.905000e+001
      vertex  8.788304e+001 -3.065583e+001  1.705000e+001
      vertex  8.791169e+001 -3.060907e+001  1.905000e+001
    endloop
  endfacet
  facet normal  8.527027e-001 -5.223965e-001  0.000000e+000
    outer loop
      vertex  8.791169e+001 -3.060907e+001  1.905000e+001
      vertex  8.788304e+001 -3.065583e+001  1.705000e+001
      vertex  8.791169e+001 -3.060907e+001  1.705000e+001
    endloop
  endfacet
  facet normal  9.237697e-001 -3.829486e-001  0.000000e+000
    outer loop
      vertex  8.791169e+001 -3.060907e+001  1.905000e+001
      vertex  8.791169e+001 -3.060907e+001  1.705000e+001
      vertex  8.793273e+001 -3.055831e+001  1.905000e+001
    endloop
  endfacet
  facet normal  9.237697e-001 -3.829486e-001  0.000000e+000
    outer loop
      vertex  8.793273e+001 -3.055831e+001  1.905000e+001
      vertex  8.791169e+001 -3.060907e+001  1.705000e+001
      vertex  8.793273e+001 -3.055831e+001  1.705000e+001
    endloop
  endfacet
  facet normal  9.721256e-001 -2.344609e-001  0.000000e+000
    outer loop
      vertex  8.793273e+001 -3.055831e+001  1.905000e+001
      vertex  8.793273e+001 -3.055831e+001  1.705000e+001
      vertex  8.794563e+001 -3.050482e+001  1.905000e+001
    endloop
  endfacet
  facet normal  9.721256e-001 -2.344609e-001  0.000000e+000
    outer loop
      vertex  8.794563e+001 -3.050482e+001  1.905000e+001
      vertex  8.793273e+001 -3.055831e+001  1.705000e+001
      vertex  8.794563e+001 -3.050482e+001  1.705000e+001
    endloop
  endfacet
  facet normal  9.968463e-001 -7.935648e-002  0.000000e+000
    outer loop
      vertex  8.794563e+001 -3.050482e+001  1.905000e+001
      vertex  8.794563e+001 -3.050482e+001  1.705000e+001
      vertex  8.795000e+001 -3.045000e+001  1.905000e+001
    endloop
  endfacet
  facet normal  9.968463e-001 -7.935648e-002  0.000000e+000
    outer loop
      vertex  8.795000e+001 -3.045000e+001  1.905000e+001
      vertex  8.794563e+001 -3.050482e+001  1.705000e+001
      vertex  8.795000e+001 -3.045000e+001  1.705000e+001
    endloop
  endfacet
  facet normal  1.000000e+000  0.000000e+000  0.000000e+000
    outer loop
      vertex  8.795000e+001 -2.355000e+001  1.705000e+001
      vertex  8.795000e+001 -2.355000e+001  1.905000e+001
      vertex  8.795000e+001 -3.045000e+001  1.705000e+001
    endloop
  endfacet
  facet normal  1.000000e+000  0.000000e+000  0.000000e+000
    outer loop
      vertex  8.795000e+001 -3.045000e+001  1.705000e+001
      vertex  8.795000e+001 -2.355000e+001  1.905000e+001
      vertex  8.795000e+001 -3.045000e+001  1.905000e+001
    endloop
  endfacet
  facet normal  9.968463e-001  7.935648e-002  -0.000000e+000
    outer loop
      vertex  8.795000e+001 -2.355000e+001  1.905000e+001
      vertex  8.795000e+001 -2.355000e+001  1.705000e+001
      vertex  8.794563e+001 -2.349518e+001  1.905000e+001
    endloop
  endfacet
  facet normal  9.968463e-001  7.935648e-002  0.000000e+000
    outer loop
      vertex  8.794563e+001 -2.349518e+001  1.905000e+001
      vertex  8.795000e+001 -2.355000e+001  1.705000e+001
      vertex  8.794563e+001 -2.349518e+001  1.705000e+001
    endloop
  endfacet
  facet normal  9.721256e-001  2.344609e-001  -0.000000e+000
    outer loop
      vertex  8.794563e+001 -2.349518e+001  1.905000e+001
      vertex  8.794563e+001 -2.349518e+001  1.705000e+001
      vertex  8.793273e+001 -2.344169e+001  1.905000e+001
    endloop
  endfacet
  facet normal  9.721256e-001  2.344609e-001  0.000000e+000
    outer loop
      vertex  8.793273e+001 -2.344169e+001  1.905000e+001
      vertex  8.794563e+001 -2.349518e+001  1.705000e+001
      vertex  8.793273e+001 -2.344169e+001  1.705000e+001
    endloop
  endfacet
  facet normal  9.237697e-001  3.829486e-001  -0.000000e+000
    outer loop
      vertex  8.793273e+001 -2.344169e+001  1.905000e+001
      vertex  8.793273e+001 -2.344169e+001  1.705000e+001
      vertex  8.791169e+001 -2.339093e+001  1.905000e+001
    endloop
  endfacet
  facet normal  9.237697e-001  3.829486e-001  0.000000e+000
    outer loop
      vertex  8.791169e+001 -2.339093e+001  1.905000e+001
      vertex  8.793273e+001 -2.344169e+001  1.705000e+001
      vertex  8.791169e+001 -2.339093e+001  1.705000e+001
    endloop
  endfacet
  facet normal  8.527027e-001  5.223965e-001  -0.000000e+000
    outer loop
      vertex  8.791169e+001 -2.339093e+001  1.905000e+001
      vertex  8.791169e+001 -2.339093e+001  1.705000e+001
      vertex  8.788304e+001 -2.334417e+001  1.905000e+001
    endloop
  endfacet
  facet normal  8.527027e-001  5.223965e-001  0.000000e+000
    outer loop
      vertex  8.788304e+001 -2.334417e+001  1.905000e+001
      vertex  8.791169e+001 -2.339093e+001  1.705000e+001
      vertex  8.788304e+001 -2.334417e+001  1.705000e+001
    endloop
  endfacet
  facet normal  7.605041e-001  6.493332e-001  -0.000000e+000
    outer loop
      vertex  8.788304e+001 -2.334417e+001  1.905000e+001
      vertex  8.788304e+001 -2.334417e+001  1.705000e+001
      vertex  8.784748e+001 -2.330252e+001  1.905000e+001
    endloop
  endfacet
  facet normal  7.605041e-001  6.493332e-001  0.000000e+000
    outer loop
      vertex  8.784748e+001 -2.330252e+001  1.905000e+001
      vertex  8.788304e+001 -2.334417e+001  1.705000e+001
      vertex  8.784748e+001 -2.330252e+001  1.705000e+001
    endloop
  endfacet
  facet normal  6.493332e-001  7.605041e-001  -0.000000e+000
    outer loop
      vertex  8.784748e+001 -2.330252e+001  1.905000e+001
      vertex  8.784748e+001 -2.330252e+001  1.705000e+001
      vertex  8.780583e+001 -2.326696e+001  1.905000e+001
    endloop
  endfacet
  facet normal  6.493332e-001  7.605041e-001  0.000000e+000
    outer loop
      vertex  8.780583e+001 -2.326696e+001  1.905000e+001
      vertex  8.784748e+001 -2.330252e+001  1.705000e+001
      vertex  8.780583e+001 -2.326696e+001  1.705000e+001
    endloop
  endfacet
  facet normal  5.223867e-001  8.527087e-001  -0.000000e+000
    outer loop
      vertex  8.780583e+001 -2.326696e+001  1.905000e+001
      vertex  8.780583e+001 -2.326696e+001  1.705000e+001
      vertex  8.775907e+001 -2.323831e+001  1.905000e+001
    endloop
  endfacet
  facet normal  5.223867e-001  8.527087e-001  0.000000e+000
    outer loop
      vertex  8.775907e+001 -2.323831e+001  1.905000e+001
      vertex  8.780583e+001 -2.326696e+001  1.705000e+001
      vertex  8.775907e+001 -2.323831e+001  1.705000e+001
    endloop
  endfacet
  facet normal  3.829782e-001  9.237574e-001  -0.000000e+000
    outer loop
      vertex  8.775907e+001 -2.323831e+001  1.905000e+001
      vertex  8.775907e+001 -2.323831e+001  1.705000e+001
      vertex  8.770831e+001 -2.321727e+001  1.905000e+001
    endloop
  endfacet
  facet normal  3.829782e-001  9.237574e-001  0.000000e+000
    outer loop
      vertex  8.770831e+001 -2.321727e+001  1.905000e+001
      vertex  8.775907e+001 -2.323831e+001  1.705000e+001
      vertex  8.770831e+001 -2.321727e+001  1.705000e+001
    endloop
  endfacet
  facet normal  2.344700e-001  9.721233e-001  -0.000000e+000
    outer loop
      vertex  8.770831e+001 -2.321727e+001  1.905000e+001
      vertex  8.770831e+001 -2.321727e+001  1.705000e+001
      vertex  8.765482e+001 -2.320436e+001  1.905000e+001
    endloop
  endfacet
  facet normal  2.344700e-001  9.721233e-001  0.000000e+000
    outer loop
      vertex  8.765482e+001 -2.320436e+001  1.905000e+001
      vertex  8.770831e+001 -2.321727e+001  1.705000e+001
      vertex  8.765482e+001 -2.320436e+001  1.705000e+001
    endloop
  endfacet
  facet normal  7.935922e-002  9.968461e-001  -0.000000e+000
    outer loop
      vertex  8.765482e+001 -2.320436e+001  1.905000e+001
      vertex  8.765482e+001 -2.320436e+001  1.705000e+001
      vertex  8.760000e+001 -2.320000e+001  1.905000e+001
    endloop
  endfacet
  facet normal  7.935922e-002  9.968461e-001  0.000000e+000
    outer loop
      vertex  8.760000e+001 -2.320000e+001  1.905000e+001
      vertex  8.765482e+001 -2.320436e+001  1.705000e+001
      vertex  8.760000e+001 -2.320000e+001  1.705000e+001
    endloop
  endfacet
  facet normal  0.000000e+000  1.000000e+000  0.000000e+000
    outer loop
      vertex  8.070000e+001 -2.320000e+001  1.705000e+001
      vertex  8.070000e+001 -2.320000e+001  1.905000e+001
      vertex  8.760000e+001 -2.320000e+001  1.705000e+001
    endloop
  endfacet
  facet normal  0.000000e+000  1.000000e+000  -0.000000e+000
    outer loop
      vertex  8.760000e+001 -2.320000e+001  1.705000e+001
      vertex  8.070000e+001 -2.320000e+001  1.905000e+001
      vertex  8.760000e+001 -2.320000e+001  1.905000e+001
    endloop
  endfacet
  facet normal  0.000000e+000  0.000000e+000 -1.000000e+000
    outer loop
      vertex  8.760000e+001 -3.080000e+001  1.705000e+001
      vertex  8.064518e+001 -3.079564e+001  1.705000e+001
      vertex  8.765482e+001 -3.079564e+001  1.705000e+001
    endloop
  endfacet
  facet normal  0.000000e+000  0.000000e+000 -1.000000e+000
    outer loop
      vertex  8.760000e+001 -3.080000e+001  1.705000e+001
      vertex  8.070000e+001 -3.080000e+001  1.705000e+001
      vertex  8.064518e+001 -3.079564e+001  1.705000e+001
    endloop
  endfacet
  facet normal  -0.000000e+000  -0.000000e+000 -1.000000e+000
    outer loop
      vertex  8.070000e+001 -2.320000e+001  1.705000e+001
      vertex  8.760000e+001 -2.320000e+001  1.705000e+001
      vertex  8.765482e+001 -2.320436e+001  1.705000e+001
    endloop
  endfacet
  facet normal  0.000000e+000  0.000000e+000 -9.999999e-001
    outer loop
      vertex  8.765482e+001 -3.079564e+001  1.705000e+001
      vertex  8.064518e+001 -3.079564e+001  1.705000e+001
      vertex  8.770831e+001 -3.078273e+001  1.705000e+001
    endloop
  endfacet
  facet normal  -0.000000e+000  0.000000e+000 -1.000000e+000
    outer loop
      vertex  8.770831e+001 -3.078273e+001  1.705000e+001
      vertex  8.064518e+001 -3.079564e+001  1.705000e+001
      vertex  8.059169e+001 -3.078273e+001  1.705000e+001
    endloop
  endfacet
  facet normal  0.000000e+000  0.000000e+000 -1.000000e+000
    outer loop
      vertex  8.770831e+001 -3.078273e+001  1.705000e+001
      vertex  8.059169e+001 -3.078273e+001  1.705000e+001
      vertex  8.775907e+001 -3.076169e+001  1.705000e+001
    endloop
  endfacet
  facet normal  -0.000000e+000  0.000000e+000 -1.000000e+000
    outer loop
      vertex  8.775907e+001 -3.076169e+001  1.705000e+001
      vertex  8.059169e+001 -3.078273e+001  1.705000e+001
      vertex  8.054093e+001 -3.076169e+001  1.705000e+001
    endloop
  endfacet
  facet normal  0.000000e+000  0.000000e+000 -9.999999e-001
    outer loop
      vertex  8.775907e+001 -3.076169e+001  1.705000e+001
      vertex  8.054093e+001 -3.076169e+001  1.705000e+001
      vertex  8.780583e+001 -3.073304e+001  1.705000e+001
    endloop
  endfacet
  facet normal  -0.000000e+000  0.000000e+000 -9.999999e-001
    outer loop
      vertex  8.780583e+001 -3.073304e+001  1.705000e+001
      vertex  8.054093e+001 -3.076169e+001  1.705000e+001
      vertex  8.049417e+001 -3.073304e+001  1.705000e+001
    endloop
  endfacet
  facet normal  0.000000e+000  0.000000e+000 -1.000000e+000
    outer loop
      vertex  8.780583e+001 -3.073304e+001  1.705000e+001
      vertex  8.049417e+001 -3.073304e+001  1.705000e+001
      vertex  8.784748e+001 -3.069748e+001  1.705000e+001
    endloop
  endfacet
  facet normal  -0.000000e+000  0.000000e+000 -1.000000e+000
    outer loop
      vertex  8.784748e+001 -3.069748e+001  1.705000e+001
      vertex  8.049417e+001 -3.073304e+001  1.705000e+001
      vertex  8.045252e+001 -3.069748e+001  1.705000e+001
    endloop
  endfacet
  facet normal  0.000000e+000  0.000000e+000 -9.999999e-001
    outer loop
      vertex  8.784748e+001 -3.069748e+001  1.705000e+001
      vertex  8.045252e+001 -3.069748e+001  1.705000e+001
      vertex  8.788304e+001 -3.065583e+001  1.705000e+001
    endloop
  endfacet
  facet normal  -0.000000e+000  0.000000e+000 -1.000000e+000
    outer loop
      vertex  8.788304e+001 -3.065583e+001  1.705000e+001
      vertex  8.045252e+001 -3.069748e+001  1.705000e+001
      vertex  8.041696e+001 -3.065583e+001  1.705000e+001
    endloop
  endfacet
  facet normal  0.000000e+000  0.000000e+000 -1.000000e+000
    outer loop
      vertex  8.788304e+001 -3.065583e+001  1.705000e+001
      vertex  8.041696e+001 -3.065583e+001  1.705000e+001
      vertex  8.791169e+001 -3.060907e+001  1.705000e+001
    endloop
  endfacet
  facet normal  -0.000000e+000  0.000000e+000 -1.000000e+000
    outer loop
      vertex  8.791169e+001 -3.060907e+001  1.705000e+001
      vertex  8.041696e+001 -3.065583e+001  1.705000e+001
      vertex  8.038831e+001 -3.060907e+001  1.705000e+001
    endloop
  endfacet
  facet normal  0.000000e+000  0.000000e+000 -1.000000e+000
    outer loop
      vertex  8.791169e+001 -3.060907e+001  1.705000e+001
      vertex  8.038831e+001 -3.060907e+001  1.705000e+001
      vertex  8.793273e+001 -3.055831e+001  1.705000e+001
    endloop
  endfacet
  facet normal  -0.000000e+000  0.000000e+000 -1.000000e+000
    outer loop
      vertex  8.793273e+001 -3.055831e+001  1.705000e+001
      vertex  8.038831e+001 -3.060907e+001  1.705000e+001
      vertex  8.036727e+001 -3.055831e+001  1.705000e+001
    endloop
  endfacet
  facet normal  0.000000e+000  0.000000e+000 -1.000000e+000
    outer loop
      vertex  8.793273e+001 -3.055831e+001  1.705000e+001
      vertex  8.036727e+001 -3.055831e+001  1.705000e+001
      vertex  8.794563e+001 -3.050482e+001  1.705000e+001
    endloop
  endfacet
  facet normal  -0.000000e+000  0.000000e+000 -1.000000e+000
    outer loop
      vertex  8.794563e+001 -3.050482e+001  1.705000e+001
      vertex  8.036727e+001 -3.055831e+001  1.705000e+001
      vertex  8.035436e+001 -3.050482e+001  1.705000e+001
    endloop
  endfacet
  facet normal  0.000000e+000  0.000000e+000 -1.000000e+000
    outer loop
      vertex  8.794563e+001 -3.050482e+001  1.705000e+001
      vertex  8.035436e+001 -3.050482e+001  1.705000e+001
      vertex  8.795000e+001 -3.045000e+001  1.705000e+001
    endloop
  endfacet
  facet normal  -0.000000e+000  0.000000e+000 -1.000000e+000
    outer loop
      vertex  8.795000e+001 -3.045000e+001  1.705000e+001
      vertex  8.035436e+001 -3.050482e+001  1.705000e+001
      vertex  8.035000e+001 -3.045000e+001  1.705000e+001
    endloop
  endfacet
  facet normal  0.000000e+000  0.000000e+000 -9.999999e-001
    outer loop
      vertex  8.795000e+001 -3.045000e+001  1.705000e+001
      vertex  8.035000e+001 -3.045000e+001  1.705000e+001
      vertex  8.795000e+001 -2.355000e+001  1.705000e+001
    endloop
  endfacet
  facet normal  -0.000000e+000  0.000000e+000 -9.999999e-001
    outer loop
      vertex  8.795000e+001 -2.355000e+001  1.705000e+001
      vertex  8.035000e+001 -3.045000e+001  1.705000e+001
      vertex  8.035000e+001 -2.355000e+001  1.705000e+001
    endloop
  endfacet
  facet normal  0.000000e+000  0.000000e+000 -1.000000e+000
    outer loop
      vertex  8.795000e+001 -2.355000e+001  1.705000e+001
      vertex  8.035000e+001 -2.355000e+001  1.705000e+001
      vertex  8.794563e+001 -2.349518e+001  1.705000e+001
    endloop
  endfacet
  facet normal  -0.000000e+000  0.000000e+000 -1.000000e+000
    outer loop
      vertex  8.794563e+001 -2.349518e+001  1.705000e+001
      vertex  8.035000e+001 -2.355000e+001  1.705000e+001
      vertex  8.035436e+001 -2.349518e+001  1.705000e+001
    endloop
  endfacet
  facet normal  0.000000e+000  0.000000e+000 -1.000000e+000
    outer loop
      vertex  8.794563e+001 -2.349518e+001  1.705000e+001
      vertex  8.035436e+001 -2.349518e+001  1.705000e+001
      vertex  8.793273e+001 -2.344169e+001  1.705000e+001
    endloop
  endfacet
  facet normal  -0.000000e+000  0.000000e+000 -1.000000e+000
    outer loop
      vertex  8.793273e+001 -2.344169e+001  1.705000e+001
      vertex  8.035436e+001 -2.349518e+001  1.705000e+001
      vertex  8.036727e+001 -2.344169e+001  1.705000e+001
    endloop
  endfacet
  facet normal  0.000000e+000  0.000000e+000 -1.000000e+000
    outer loop
      vertex  8.793273e+001 -2.344169e+001  1.705000e+001
      vertex  8.036727e+001 -2.344169e+001  1.705000e+001
      vertex  8.791169e+001 -2.339093e+001  1.705000e+001
    endloop
  endfacet
  facet normal  -0.000000e+000  0.000000e+000 -1.000000e+000
    outer loop
      vertex  8.791169e+001 -2.339093e+001  1.705000e+001
      vertex  8.036727e+001 -2.344169e+001  1.705000e+001
      vertex  8.038831e+001 -2.339093e+001  1.705000e+001
    endloop
  endfacet
  facet normal  0.000000e+000  0.000000e+000 -1.000000e+000
    outer loop
      vertex  8.791169e+001 -2.339093e+001  1.705000e+001
      vertex  8.038831e+001 -2.339093e+001  1.705000e+001
      vertex  8.788304e+001 -2.334417e+001  1.705000e+001
    endloop
  endfacet
  facet normal  -0.000000e+000  0.000000e+000 -1.000000e+000
    outer loop
      vertex  8.788304e+001 -2.334417e+001  1.705000e+001
      vertex  8.038831e+001 -2.339093e+001  1.705000e+001
      vertex  8.041696e+001 -2.334417e+001  1.705000e+001
    endloop
  endfacet
  facet normal  0.000000e+000  0.000000e+000 -1.000000e+000
    outer loop
      vertex  8.788304e+001 -2.334417e+001  1.705000e+001
      vertex  8.041696e+001 -2.334417e+001  1.705000e+001
      vertex  8.784748e+001 -2.330252e+001  1.705000e+001
    endloop
  endfacet
  facet normal  -0.000000e+000  0.000000e+000 -9.999999e-001
    outer loop
      vertex  8.784748e+001 -2.330252e+001  1.705000e+001
      vertex  8.041696e+001 -2.334417e+001  1.705000e+001
      vertex  8.045252e+001 -2.330252e+001  1.705000e+001
    endloop
  endfacet
  facet normal  0.000000e+000  0.000000e+000 -1.000000e+000
    outer loop
      vertex  8.784748e+001 -2.330252e+001  1.705000e+001
      vertex  8.045252e+001 -2.330252e+001  1.705000e+001
      vertex  8.780583e+001 -2.326696e+001  1.705000e+001
    endloop
  endfacet
  facet normal  -0.000000e+000  0.000000e+000 -1.000000e+000
    outer loop
      vertex  8.780583e+001 -2.326696e+001  1.705000e+001
      vertex  8.045252e+001 -2.330252e+001  1.705000e+001
      vertex  8.049417e+001 -2.326696e+001  1.705000e+001
    endloop
  endfacet
  facet normal  0.000000e+000  0.000000e+000 -9.999999e-001
    outer loop
      vertex  8.780583e+001 -2.326696e+001  1.705000e+001
      vertex  8.049417e+001 -2.326696e+001  1.705000e+001
      vertex  8.775907e+001 -2.323831e+001  1.705000e+001
    endloop
  endfacet
  facet normal  -0.000000e+000  0.000000e+000 -9.999999e-001
    outer loop
      vertex  8.775907e+001 -2.323831e+001  1.705000e+001
      vertex  8.049417e+001 -2.326696e+001  1.705000e+001
      vertex  8.054093e+001 -2.323831e+001  1.705000e+001
    endloop
  endfacet
  facet normal  0.000000e+000  0.000000e+000 -1.000000e+000
    outer loop
      vertex  8.775907e+001 -2.323831e+001  1.705000e+001
      vertex  8.054093e+001 -2.323831e+001  1.705000e+001
      vertex  8.770831e+001 -2.321727e+001  1.705000e+001
    endloop
  endfacet
  facet normal  -0.000000e+000  0.000000e+000 -1.000000e+000
    outer loop
      vertex  8.770831e+001 -2.321727e+001  1.705000e+001
      vertex  8.054093e+001 -2.323831e+001  1.705000e+001
      vertex  8.059169e+001 -2.321727e+001  1.705000e+001
    endloop
  endfacet
  facet normal  0.000000e+000  0.000000e+000 -1.000000e+000
    outer loop
      vertex  8.770831e+001 -2.321727e+001  1.705000e+001
      vertex  8.059169e+001 -2.321727e+001  1.705000e+001
      vertex  8.765482e+001 -2.320436e+001  1.705000e+001
    endloop
  endfacet
  facet normal  -0.000000e+000  0.000000e+000 -9.999999e-001
    outer loop
      vertex  8.765482e+001 -2.320436e+001  1.705000e+001
      vertex  8.059169e+001 -2.321727e+001  1.705000e+001
      vertex  8.064518e+001 -2.320436e+001  1.705000e+001
    endloop
  endfacet
  facet normal  0.000000e+000  0.000000e+000 -1.000000e+000
    outer loop
      vertex  8.765482e+001 -2.320436e+001  1.705000e+001
      vertex  8.064518e+001 -2.320436e+001  1.705000e+001
      vertex  8.070000e+001 -2.320000e+001  1.705000e+001
    endloop
  endfacet
  facet normal  -0.000000e+000  0.000000e+000  1.000000e+000
    outer loop
      vertex  8.915000e+001 -2.100000e+001  2.105000e+001
      vertex  7.915000e+001 -2.100000e+001  2.105000e+001
      vertex  8.934509e+001 -2.101921e+001  2.105000e+001
    endloop
  endfacet
  facet normal  0.000000e+000  0.000000e+000  1.000000e+000
    outer loop
      vertex  8.934509e+001 -2.101921e+001  2.105000e+001
      vertex  7.915000e+001 -2.100000e+001  2.105000e+001
      vertex  7.895491e+001 -2.101921e+001  2.105000e+001
    endloop
  endfacet
  facet normal  -0.000000e+000  0.000000e+000  1.000000e+000
    outer loop
      vertex  8.934509e+001 -2.101921e+001  2.105000e+001
      vertex  7.895491e+001 -2.101921e+001  2.105000e+001
      vertex  8.953268e+001 -2.107612e+001  2.105000e+001
    endloop
  endfacet
  facet normal  0.000000e+000  0.000000e+000  1.000000e+000
    outer loop
      vertex  8.953268e+001 -2.107612e+001  2.105000e+001
      vertex  7.895491e+001 -2.101921e+001  2.105000e+001
      vertex  7.876732e+001 -2.107612e+001  2.105000e+001
    endloop
  endfacet
  facet normal  -0.000000e+000  0.000000e+000  9.999999e-001
    outer loop
      vertex  8.953268e+001 -2.107612e+001  2.105000e+001
      vertex  7.876732e+001 -2.107612e+001  2.105000e+001
      vertex  8.970557e+001 -2.116853e+001  2.105000e+001
    endloop
  endfacet
  facet normal  0.000000e+000  0.000000e+000  1.000000e+000
    outer loop
      vertex  8.970557e+001 -2.116853e+001  2.105000e+001
      vertex  7.876732e+001 -2.107612e+001  2.105000e+001
      vertex  7.859443e+001 -2.116853e+001  2.105000e+001
    endloop
  endfacet
  facet normal  -0.000000e+000  0.000000e+000  1.000000e+000
    outer loop
      vertex  8.970557e+001 -2.116853e+001  2.105000e+001
      vertex  7.859443e+001 -2.116853e+001  2.105000e+001
      vertex  8.985711e+001 -2.129289e+001  2.105000e+001
    endloop
  endfacet
  facet normal  0.000000e+000  0.000000e+000  1.000000e+000
    outer loop
      vertex  8.985711e+001 -2.129289e+001  2.105000e+001
      vertex  7.859443e+001 -2.116853e+001  2.105000e+001
      vertex  7.844289e+001 -2.129289e+001  2.105000e+001
    endloop
  endfacet
  facet normal  -0.000000e+000  0.000000e+000  1.000000e+000
    outer loop
      vertex  8.985711e+001 -2.129289e+001  2.105000e+001
      vertex  7.844289e+001 -2.129289e+001  2.105000e+001
      vertex  8.998147e+001 -2.144443e+001  2.105000e+001
    endloop
  endfacet
  facet normal  0.000000e+000  0.000000e+000  9.999999e-001
    outer loop
      vertex  8.998147e+001 -2.144443e+001  2.105000e+001
      vertex  7.844289e+001 -2.129289e+001  2.105000e+001
      vertex  7.831853e+001 -2.144443e+001  2.105000e+001
    endloop
  endfacet
  facet normal  -0.000000e+000  0.000000e+000  1.000000e+000
    outer loop
      vertex  8.998147e+001 -2.144443e+001  2.105000e+001
      vertex  7.831853e+001 -2.144443e+001  2.105000e+001
      vertex  9.007388e+001 -2.161732e+001  2.105000e+001
    endloop
  endfacet
  facet normal  0.000000e+000  0.000000e+000  1.000000e+000
    outer loop
      vertex  9.007388e+001 -2.161732e+001  2.105000e+001
      vertex  7.831853e+001 -2.144443e+001  2.105000e+001
      vertex  7.822612e+001 -2.161732e+001  2.105000e+001
    endloop
  endfacet
  facet normal  -0.000000e+000  0.000000e+000  1.000000e+000
    outer loop
      vertex  9.007388e+001 -2.161732e+001  2.105000e+001
      vertex  7.822612e+001 -2.161732e+001  2.105000e+001
      vertex  9.013078e+001 -2.180491e+001  2.105000e+001
    endloop
  endfacet
  facet normal  0.000000e+000  0.000000e+000  1.000000e+000
    outer loop
      vertex  9.013078e+001 -2.180491e+001  2.105000e+001
      vertex  7.822612e+001 -2.161732e+001  2.105000e+001
      vertex  7.816921e+001 -2.180491e+001  2.105000e+001
    endloop
  endfacet
  facet normal  -0.000000e+000  0.000000e+000  1.000000e+000
    outer loop
      vertex  9.013078e+001 -2.180491e+001  2.105000e+001
      vertex  7.816921e+001 -2.180491e+001  2.105000e+001
      vertex  9.015000e+001 -2.200000e+001  2.105000e+001
    endloop
  endfacet
  facet normal  0.000000e+000  0.000000e+000  1.000000e+000
    outer loop
      vertex  9.015000e+001 -2.200000e+001  2.105000e+001
      vertex  7.816921e+001 -2.180491e+001  2.105000e+001
      vertex  7.815000e+001 -2.200000e+001  2.105000e+001
    endloop
  endfacet
  facet normal  -0.000000e+000  0.000000e+000  1.000000e+000
    outer loop
      vertex  9.015000e+001 -2.200000e+001  2.105000e+001
      vertex  7.815000e+001 -2.200000e+001  2.105000e+001
      vertex  9.015000e+001 -3.200000e+001  2.105000e+001
    endloop
  endfacet
  facet normal  0.000000e+000  0.000000e+000  1.000000e+000
    outer loop
      vertex  9.015000e+001 -3.200000e+001  2.105000e+001
      vertex  7.815000e+001 -2.200000e+001  2.105000e+001
      vertex  7.815000e+001 -3.200000e+001  2.105000e+001
    endloop
  endfacet
  facet normal  -0.000000e+000  0.000000e+000  1.000000e+000
    outer loop
      vertex  9.015000e+001 -3.200000e+001  2.105000e+001
      vertex  7.815000e+001 -3.200000e+001  2.105000e+001
      vertex  9.013078e+001 -3.219509e+001  2.105000e+001
    endloop
  endfacet
  facet normal  0.000000e+000  0.000000e+000  1.000000e+000
    outer loop
      vertex  9.013078e+001 -3.219509e+001  2.105000e+001
      vertex  7.815000e+001 -3.200000e+001  2.105000e+001
      vertex  7.816921e+001 -3.219509e+001  2.105000e+001
    endloop
  endfacet
  facet normal  -0.000000e+000  0.000000e+000  1.000000e+000
    outer loop
      vertex  9.013078e+001 -3.219509e+001  2.105000e+001
      vertex  7.816921e+001 -3.219509e+001  2.105000e+001
      vertex  9.007388e+001 -3.238268e+001  2.105000e+001
    endloop
  endfacet
  facet normal  0.000000e+000  0.000000e+000  1.000000e+000
    outer loop
      vertex  9.007388e+001 -3.238268e+001  2.105000e+001
      vertex  7.816921e+001 -3.219509e+001  2.105000e+001
      vertex  7.822612e+001 -3.238268e+001  2.105000e+001
    endloop
  endfacet
  facet normal  -0.000000e+000  0.000000e+000  1.000000e+000
    outer loop
      vertex  9.007388e+001 -3.238268e+001  2.105000e+001
      vertex  7.822612e+001 -3.238268e+001  2.105000e+001
      vertex  8.998147e+001 -3.255557e+001  2.105000e+001
    endloop
  endfacet
  facet normal  0.000000e+000  0.000000e+000  1.000000e+000
    outer loop
      vertex  8.998147e+001 -3.255557e+001  2.105000e+001
      vertex  7.822612e+001 -3.238268e+001  2.105000e+001
      vertex  7.831853e+001 -3.255557e+001  2.105000e+001
    endloop
  endfacet
  facet normal  -0.000000e+000  0.000000e+000  1.000000e+000
    outer loop
      vertex  8.998147e+001 -3.255557e+001  2.105000e+001
      vertex  7.831853e+001 -3.255557e+001  2.105000e+001
      vertex  8.985711e+001 -3.270711e+001  2.105000e+001
    endloop
  endfacet
  facet normal  0.000000e+000  0.000000e+000  1.000000e+000
    outer loop
      vertex  8.985711e+001 -3.270711e+001  2.105000e+001
      vertex  7.831853e+001 -3.255557e+001  2.105000e+001
      vertex  7.844289e+001 -3.270711e+001  2.105000e+001
    endloop
  endfacet
  facet normal  -0.000000e+000  0.000000e+000  1.000000e+000
    outer loop
      vertex  8.985711e+001 -3.270711e+001  2.105000e+001
      vertex  7.844289e+001 -3.270711e+001  2.105000e+001
      vertex  8.970557e+001 -3.283147e+001  2.105000e+001
    endloop
  endfacet
  facet normal  0.000000e+000  0.000000e+000  1.000000e+000
    outer loop
      vertex  8.970557e+001 -3.283147e+001  2.105000e+001
      vertex  7.844289e+001 -3.270711e+001  2.105000e+001
      vertex  7.859443e+001 -3.283147e+001  2.105000e+001
    endloop
  endfacet
  facet normal  -0.000000e+000  0.000000e+000  1.000000e+000
    outer loop
      vertex  8.970557e+001 -3.283147e+001  2.105000e+001
      vertex  7.859443e+001 -3.283147e+001  2.105000e+001
      vertex  8.953268e+001 -3.292388e+001  2.105000e+001
    endloop
  endfacet
  facet normal  0.000000e+000  0.000000e+000  1.000000e+000
    outer loop
      vertex  8.953268e+001 -3.292388e+001  2.105000e+001
      vertex  7.859443e+001 -3.283147e+001  2.105000e+001
      vertex  7.876732e+001 -3.292388e+001  2.105000e+001
    endloop
  endfacet
  facet normal  -0.000000e+000  0.000000e+000  1.000000e+000
    outer loop
      vertex  8.953268e+001 -3.292388e+001  2.105000e+001
      vertex  7.876732e+001 -3.292388e+001  2.105000e+001
      vertex  8.934509e+001 -3.298079e+001  2.105000e+001
    endloop
  endfacet
  facet normal  0.000000e+000  0.000000e+000  1.000000e+000
    outer loop
      vertex  8.934509e+001 -3.298079e+001  2.105000e+001
      vertex  7.876732e+001 -3.292388e+001  2.105000e+001
      vertex  7.895491e+001 -3.298079e+001  2.105000e+001
    endloop
  endfacet
  facet normal  -0.000000e+000  0.000000e+000  1.000000e+000
    outer loop
      vertex  8.934509e+001 -3.298079e+001  2.105000e+001
      vertex  7.895491e+001 -3.298079e+001  2.105000e+001
      vertex  8.915000e+001 -3.300000e+001  2.105000e+001
    endloop
  endfacet
  facet normal  0.000000e+000  0.000000e+000  1.000000e+000
    outer loop
      vertex  8.915000e+001 -3.300000e+001  2.105000e+001
      vertex  7.895491e+001 -3.298079e+001  2.105000e+001
      vertex  7.915000e+001 -3.300000e+001  2.105000e+001
    endloop
  endfacet
  facet normal  9.801622e-002  9.951848e-001  0.000000e+000
    outer loop
      vertex  8.915000e+001 -2.100000e+001  1.905000e+001
      vertex  8.915000e+001 -2.100000e+001  2.105000e+001
      vertex  8.934509e+001 -2.101921e+001  1.905000e+001
    endloop
  endfacet
  facet normal  9.801622e-002  9.951848e-001  -0.000000e+000
    outer loop
      vertex  8.934509e+001 -2.101921e+001  1.905000e+001
      vertex  8.915000e+001 -2.100000e+001  2.105000e+001
      vertex  8.934509e+001 -2.101921e+001  2.105000e+001
    endloop
  endfacet
  facet normal  2.902869e-001  9.569396e-001  0.000000e+000
    outer loop
      vertex  8.934509e+001 -2.101921e+001  1.905000e+001
      vertex  8.934509e+001 -2.101921e+001  2.105000e+001
      vertex  8.953268e+001 -2.107612e+001  1.905000e+001
    endloop
  endfacet
  facet normal  2.902869e-001  9.569396e-001  -0.000000e+000
    outer loop
      vertex  8.953268e+001 -2.107612e+001  1.905000e+001
      vertex  8.934509e+001 -2.101921e+001  2.105000e+001
      vertex  8.953268e+001 -2.107612e+001  2.105000e+001
    endloop
  endfacet
  facet normal  4.713874e-001  8.819262e-001  0.000000e+000
    outer loop
      vertex  8.953268e+001 -2.107612e+001  1.905000e+001
      vertex  8.953268e+001 -2.107612e+001  2.105000e+001
      vertex  8.970557e+001 -2.116853e+001  1.905000e+001
    endloop
  endfacet
  facet normal  4.713874e-001  8.819262e-001  -0.000000e+000
    outer loop
      vertex  8.970557e+001 -2.116853e+001  1.905000e+001
      vertex  8.953268e+001 -2.107612e+001  2.105000e+001
      vertex  8.970557e+001 -2.116853e+001  2.105000e+001
    endloop
  endfacet
  facet normal  6.343974e-001  7.730070e-001  0.000000e+000
    outer loop
      vertex  8.970557e+001 -2.116853e+001  1.905000e+001
      vertex  8.970557e+001 -2.116853e+001  2.105000e+001
      vertex  8.985711e+001 -2.129289e+001  1.905000e+001
    endloop
  endfacet
  facet normal  6.343974e-001  7.730070e-001  -0.000000e+000
    outer loop
      vertex  8.985711e+001 -2.129289e+001  1.905000e+001
      vertex  8.970557e+001 -2.116853e+001  2.105000e+001
      vertex  8.985711e+001 -2.129289e+001  2.105000e+001
    endloop
  endfacet
  facet normal  7.730205e-001  6.343810e-001  0.000000e+000
    outer loop
      vertex  8.985711e+001 -2.129289e+001  1.905000e+001
      vertex  8.985711e+001 -2.129289e+001  2.105000e+001
      vertex  8.998147e+001 -2.144443e+001  1.905000e+001
    endloop
  endfacet
  facet normal  7.730205e-001  6.343810e-001  -0.000000e+000
    outer loop
      vertex  8.998147e+001 -2.144443e+001  1.905000e+001
      vertex  8.985711e+001 -2.129289e+001  2.105000e+001
      vertex  8.998147e+001 -2.144443e+001  2.105000e+001
    endloop
  endfacet
  facet normal  8.819119e-001  4.714142e-001  0.000000e+000
    outer loop
      vertex  8.998147e+001 -2.144443e+001  1.905000e+001
      vertex  8.998147e+001 -2.144443e+001  2.105000e+001
      vertex  9.007388e+001 -2.161732e+001  1.905000e+001
    endloop
  endfacet
  facet normal  8.819119e-001  4.714142e-001  -0.000000e+000
    outer loop
      vertex  9.007388e+001 -2.161732e+001  1.905000e+001
      vertex  8.998147e+001 -2.144443e+001  2.105000e+001
      vertex  9.007388e+001 -2.161732e+001  2.105000e+001
    endloop
  endfacet
  facet normal  9.569477e-001  2.902601e-001  0.000000e+000
    outer loop
      vertex  9.007388e+001 -2.161732e+001  1.905000e+001
      vertex  9.007388e+001 -2.161732e+001  2.105000e+001
      vertex  9.013078e+001 -2.180491e+001  1.905000e+001
    endloop
  endfacet
  facet normal  9.569477e-001  2.902601e-001  -0.000000e+000
    outer loop
      vertex  9.013078e+001 -2.180491e+001  1.905000e+001
      vertex  9.007388e+001 -2.161732e+001  2.105000e+001
      vertex  9.013078e+001 -2.180491e+001  2.105000e+001
    endloop
  endfacet
  facet normal  9.951829e-001  9.803550e-002  0.000000e+000
    outer loop
      vertex  9.013078e+001 -2.180491e+001  1.905000e+001
      vertex  9.013078e+001 -2.180491e+001  2.105000e+001
      vertex  9.015000e+001 -2.200000e+001  1.905000e+001
    endloop
  endfacet
  facet normal  9.951829e-001  9.803550e-002  -0.000000e+000
    outer loop
      vertex  9.015000e+001 -2.200000e+001  1.905000e+001
      vertex  9.013078e+001 -2.180491e+001  2.105000e+001
      vertex  9.015000e+001 -2.200000e+001  2.105000e+001
    endloop
  endfacet
  facet normal  0.000000e+000  1.000000e+000  0.000000e+000
    outer loop
      vertex  7.915000e+001 -2.100000e+001  2.105000e+001
      vertex  8.915000e+001 -2.100000e+001  2.105000e+001
      vertex  7.915000e+001 -2.100000e+001  1.905000e+001
    endloop
  endfacet
  facet normal  0.000000e+000  1.000000e+000  0.000000e+000
    outer loop
      vertex  7.915000e+001 -2.100000e+001  1.905000e+001
      vertex  8.915000e+001 -2.100000e+001  2.105000e+001
      vertex  8.915000e+001 -2.100000e+001  1.905000e+001
    endloop
  endfacet
  facet normal -9.951867e-001  9.799696e-002  0.000000e+000
    outer loop
      vertex  7.815000e+001 -2.200000e+001  1.905000e+001
      vertex  7.815000e+001 -2.200000e+001  2.105000e+001
      vertex  7.816921e+001 -2.180491e+001  1.905000e+001
    endloop
  endfacet
  facet normal -9.951867e-001  9.799696e-002  0.000000e+000
    outer loop
      vertex  7.816921e+001 -2.180491e+001  1.905000e+001
      vertex  7.815000e+001 -2.200000e+001  2.105000e+001
      vertex  7.816921e+001 -2.180491e+001  2.105000e+001
    endloop
  endfacet
  facet normal -9.569370e-001  2.902958e-001  0.000000e+000
    outer loop
      vertex  7.816921e+001 -2.180491e+001  1.905000e+001
      vertex  7.816921e+001 -2.180491e+001  2.105000e+001
      vertex  7.822612e+001 -2.161732e+001  1.905000e+001
    endloop
  endfacet
  facet normal -9.569370e-001  2.902958e-001  0.000000e+000
    outer loop
      vertex  7.822612e+001 -2.161732e+001  1.905000e+001
      vertex  7.816921e+001 -2.180491e+001  2.105000e+001
      vertex  7.822612e+001 -2.161732e+001  2.105000e+001
    endloop
  endfacet
  facet normal -8.819281e-001  4.713839e-001  0.000000e+000
    outer loop
      vertex  7.822612e+001 -2.161732e+001  1.905000e+001
      vertex  7.822612e+001 -2.161732e+001  2.105000e+001
      vertex  7.831853e+001 -2.144443e+001  1.905000e+001
    endloop
  endfacet
  facet normal -8.819281e-001  4.713839e-001  0.000000e+000
    outer loop
      vertex  7.831853e+001 -2.144443e+001  1.905000e+001
      vertex  7.822612e+001 -2.161732e+001  2.105000e+001
      vertex  7.831853e+001 -2.144443e+001  2.105000e+001
    endloop
  endfacet
  facet normal -7.730015e-001  6.344043e-001  0.000000e+000
    outer loop
      vertex  7.831853e+001 -2.144443e+001  1.905000e+001
      vertex  7.831853e+001 -2.144443e+001  2.105000e+001
      vertex  7.844289e+001 -2.129289e+001  1.905000e+001
    endloop
  endfacet
  facet normal -7.730015e-001  6.344043e-001  0.000000e+000
    outer loop
      vertex  7.844289e+001 -2.129289e+001  1.905000e+001
      vertex  7.831853e+001 -2.144443e+001  2.105000e+001
      vertex  7.844289e+001 -2.129289e+001  2.105000e+001
    endloop
  endfacet
  facet normal -6.343974e-001  7.730070e-001  0.000000e+000
    outer loop
      vertex  7.844289e+001 -2.129289e+001  1.905000e+001
      vertex  7.844289e+001 -2.129289e+001  2.105000e+001
      vertex  7.859443e+001 -2.116853e+001  1.905000e+001
    endloop
  endfacet
  facet normal -6.343974e-001  7.730070e-001  0.000000e+000
    outer loop
      vertex  7.859443e+001 -2.116853e+001  1.905000e+001
      vertex  7.844289e+001 -2.129289e+001  2.105000e+001
      vertex  7.859443e+001 -2.116853e+001  2.105000e+001
    endloop
  endfacet
  facet normal -4.713874e-001  8.819262e-001  0.000000e+000
    outer loop
      vertex  7.859443e+001 -2.116853e+001  1.905000e+001
      vertex  7.859443e+001 -2.116853e+001  2.105000e+001
      vertex  7.876732e+001 -2.107612e+001  1.905000e+001
    endloop
  endfacet
  facet normal -4.713874e-001  8.819262e-001  0.000000e+000
    outer loop
      vertex  7.876732e+001 -2.107612e+001  1.905000e+001
      vertex  7.859443e+001 -2.116853e+001  2.105000e+001
      vertex  7.876732e+001 -2.107612e+001  2.105000e+001
    endloop
  endfacet
  facet normal -2.902869e-001  9.569396e-001  0.000000e+000
    outer loop
      vertex  7.876732e+001 -2.107612e+001  1.905000e+001
      vertex  7.876732e+001 -2.107612e+001  2.105000e+001
      vertex  7.895491e+001 -2.101921e+001  1.905000e+001
    endloop
  endfacet
  facet normal -2.902869e-001  9.569396e-001  0.000000e+000
    outer loop
      vertex  7.895491e+001 -2.101921e+001  1.905000e+001
      vertex  7.876732e+001 -2.107612e+001  2.105000e+001
      vertex  7.895491e+001 -2.101921e+001  2.105000e+001
    endloop
  endfacet
  facet normal -9.801622e-002  9.951848e-001  0.000000e+000
    outer loop
      vertex  7.895491e+001 -2.101921e+001  1.905000e+001
      vertex  7.895491e+001 -2.101921e+001  2.105000e+001
      vertex  7.915000e+001 -2.100000e+001  1.905000e+001
    endloop
  endfacet
  facet normal -9.801622e-002  9.951848e-001  0.000000e+000
    outer loop
      vertex  7.915000e+001 -2.100000e+001  1.905000e+001
      vertex  7.895491e+001 -2.101921e+001  2.105000e+001
      vertex  7.915000e+001 -2.100000e+001  2.105000e+001
    endloop
  endfacet
  facet normal -1.000000e+000  -0.000000e+000  0.000000e+000
    outer loop
      vertex  7.815000e+001 -3.200000e+001  2.105000e+001
      vertex  7.815000e+001 -2.200000e+001  2.105000e+001
      vertex  7.815000e+001 -3.200000e+001  1.905000e+001
    endloop
  endfacet
  facet normal -1.000000e+000  0.000000e+000  0.000000e+000
    outer loop
      vertex  7.815000e+001 -3.200000e+001  1.905000e+001
      vertex  7.815000e+001 -2.200000e+001  2.105000e+001
      vertex  7.815000e+001 -2.200000e+001  1.905000e+001
    endloop
  endfacet
  facet normal -9.801622e-002 -9.951848e-001  -0.000000e+000
    outer loop
      vertex  7.915000e+001 -3.300000e+001  1.905000e+001
      vertex  7.915000e+001 -3.300000e+001  2.105000e+001
      vertex  7.895491e+001 -3.298079e+001  1.905000e+001
    endloop
  endfacet
  facet normal -9.801622e-002 -9.951848e-001  0.000000e+000
    outer loop
      vertex  7.895491e+001 -3.298079e+001  1.905000e+001
      vertex  7.915000e+001 -3.300000e+001  2.105000e+001
      vertex  7.895491e+001 -3.298079e+001  2.105000e+001
    endloop
  endfacet
  facet normal -2.902958e-001 -9.569370e-001  -0.000000e+000
    outer loop
      vertex  7.895491e+001 -3.298079e+001  1.905000e+001
      vertex  7.895491e+001 -3.298079e+001  2.105000e+001
      vertex  7.876732e+001 -3.292388e+001  1.905000e+001
    endloop
  endfacet
  facet normal -2.902958e-001 -9.569370e-001  0.000000e+000
    outer loop
      vertex  7.876732e+001 -3.292388e+001  1.905000e+001
      vertex  7.895491e+001 -3.298079e+001  2.105000e+001
      vertex  7.876732e+001 -3.292388e+001  2.105000e+001
    endloop
  endfacet
  facet normal -4.713799e-001 -8.819302e-001  -0.000000e+000
    outer loop
      vertex  7.876732e+001 -3.292388e+001  1.905000e+001
      vertex  7.876732e+001 -3.292388e+001  2.105000e+001
      vertex  7.859443e+001 -3.283147e+001  1.905000e+001
    endloop
  endfacet
  facet normal -4.713799e-001 -8.819302e-001  0.000000e+000
    outer loop
      vertex  7.859443e+001 -3.283147e+001  1.905000e+001
      vertex  7.876732e+001 -3.292388e+001  2.105000e+001
      vertex  7.859443e+001 -3.283147e+001  2.105000e+001
    endloop
  endfacet
  facet normal -6.343974e-001 -7.730070e-001  -0.000000e+000
    outer loop
      vertex  7.859443e+001 -3.283147e+001  1.905000e+001
      vertex  7.859443e+001 -3.283147e+001  2.105000e+001
      vertex  7.844289e+001 -3.270711e+001  1.905000e+001
    endloop
  endfacet
  facet normal -6.343974e-001 -7.730070e-001  0.000000e+000
    outer loop
      vertex  7.844289e+001 -3.270711e+001  1.905000e+001
      vertex  7.859443e+001 -3.283147e+001  2.105000e+001
      vertex  7.844289e+001 -3.270711e+001  2.105000e+001
    endloop
  endfacet
  facet normal -7.730054e-001 -6.343995e-001  -0.000000e+000
    outer loop
      vertex  7.844289e+001 -3.270711e+001  1.905000e+001
      vertex  7.844289e+001 -3.270711e+001  2.105000e+001
      vertex  7.831853e+001 -3.255557e+001  1.905000e+001
    endloop
  endfacet
  facet normal -7.730054e-001 -6.343995e-001  0.000000e+000
    outer loop
      vertex  7.831853e+001 -3.255557e+001  1.905000e+001
      vertex  7.844289e+001 -3.270711e+001  2.105000e+001
      vertex  7.831853e+001 -3.255557e+001  2.105000e+001
    endloop
  endfacet
  facet normal -8.819259e-001 -4.713880e-001  -0.000000e+000
    outer loop
      vertex  7.831853e+001 -3.255557e+001  1.905000e+001
      vertex  7.831853e+001 -3.255557e+001  2.105000e+001
      vertex  7.822612e+001 -3.238268e+001  1.905000e+001
    endloop
  endfacet
  facet normal -8.819259e-001 -4.713880e-001  0.000000e+000
    outer loop
      vertex  7.822612e+001 -3.238268e+001  1.905000e+001
      vertex  7.831853e+001 -3.255557e+001  2.105000e+001
      vertex  7.822612e+001 -3.238268e+001  2.105000e+001
    endloop
  endfacet
  facet normal -9.569370e-001 -2.902958e-001  -0.000000e+000
    outer loop
      vertex  7.822612e+001 -3.238268e+001  1.905000e+001
      vertex  7.822612e+001 -3.238268e+001  2.105000e+001
      vertex  7.816921e+001 -3.219509e+001  1.905000e+001
    endloop
  endfacet
  facet normal -9.569370e-001 -2.902958e-001  0.000000e+000
    outer loop
      vertex  7.816921e+001 -3.219509e+001  1.905000e+001
      vertex  7.822612e+001 -3.238268e+001  2.105000e+001
      vertex  7.816921e+001 -3.219509e+001  2.105000e+001
    endloop
  endfacet
  facet normal -9.951867e-001 -9.799696e-002  -0.000000e+000
    outer loop
      vertex  7.816921e+001 -3.219509e+001  1.905000e+001
      vertex  7.816921e+001 -3.219509e+001  2.105000e+001
      vertex  7.815000e+001 -3.200000e+001  1.905000e+001
    endloop
  endfacet
  facet normal -9.951867e-001 -9.799696e-002  0.000000e+000
    outer loop
      vertex  7.815000e+001 -3.200000e+001  1.905000e+001
      vertex  7.816921e+001 -3.219509e+001  2.105000e+001
      vertex  7.815000e+001 -3.200000e+001  2.105000e+001
    endloop
  endfacet
  facet normal  0.000000e+000 -1.000000e+000  0.000000e+000
    outer loop
      vertex  8.915000e+001 -3.300000e+001  2.105000e+001
      vertex  7.915000e+001 -3.300000e+001  2.105000e+001
      vertex  8.915000e+001 -3.300000e+001  1.905000e+001
    endloop
  endfacet
  facet normal  0.000000e+000 -1.000000e+000  0.000000e+000
    outer loop
      vertex  8.915000e+001 -3.300000e+001  1.905000e+001
      vertex  7.915000e+001 -3.300000e+001  2.105000e+001
      vertex  7.915000e+001 -3.300000e+001  1.905000e+001
    endloop
  endfacet
  facet normal  9.951829e-001 -9.803550e-002  0.000000e+000
    outer loop
      vertex  9.015000e+001 -3.200000e+001  1.905000e+001
      vertex  9.015000e+001 -3.200000e+001  2.105000e+001
      vertex  9.013078e+001 -3.219509e+001  1.905000e+001
    endloop
  endfacet
  facet normal  9.951829e-001 -9.803550e-002  0.000000e+000
    outer loop
      vertex  9.013078e+001 -3.219509e+001  1.905000e+001
      vertex  9.015000e+001 -3.200000e+001  2.105000e+001
      vertex  9.013078e+001 -3.219509e+001  2.105000e+001
    endloop
  endfacet
  facet normal  9.569477e-001 -2.902601e-001  0.000000e+000
    outer loop
      vertex  9.013078e+001 -3.219509e+001  1.905000e+001
      vertex  9.013078e+001 -3.219509e+001  2.105000e+001
      vertex  9.007388e+001 -3.238268e+001  1.905000e+001
    endloop
  endfacet
  facet normal  9.569477e-001 -2.902601e-001  0.000000e+000
    outer loop
      vertex  9.007388e+001 -3.238268e+001  1.905000e+001
      vertex  9.013078e+001 -3.219509e+001  2.105000e+001
      vertex  9.007388e+001 -3.238268e+001  2.105000e+001
    endloop
  endfacet
  facet normal  8.819097e-001 -4.714182e-001  0.000000e+000
    outer loop
      vertex  9.007388e+001 -3.238268e+001  1.905000e+001
      vertex  9.007388e+001 -3.238268e+001  2.105000e+001
      vertex  8.998147e+001 -3.255557e+001  1.905000e+001
    endloop
  endfacet
  facet normal  8.819097e-001 -4.714182e-001  0.000000e+000
    outer loop
      vertex  8.998147e+001 -3.255557e+001  1.905000e+001
      vertex  9.007388e+001 -3.238268e+001  2.105000e+001
      vertex  8.998147e+001 -3.255557e+001  2.105000e+001
    endloop
  endfacet
  facet normal  7.730244e-001 -6.343762e-001  0.000000e+000
    outer loop
      vertex  8.998147e+001 -3.255557e+001  1.905000e+001
      vertex  8.998147e+001 -3.255557e+001  2.105000e+001
      vertex  8.985711e+001 -3.270711e+001  1.905000e+001
    endloop
  endfacet
  facet normal  7.730244e-001 -6.343762e-001  0.000000e+000
    outer loop
      vertex  8.985711e+001 -3.270711e+001  1.905000e+001
      vertex  8.998147e+001 -3.255557e+001  2.105000e+001
      vertex  8.985711e+001 -3.270711e+001  2.105000e+001
    endloop
  endfacet
  facet normal  6.343974e-001 -7.730070e-001  0.000000e+000
    outer loop
      vertex  8.985711e+001 -3.270711e+001  1.905000e+001
      vertex  8.985711e+001 -3.270711e+001  2.105000e+001
      vertex  8.970557e+001 -3.283147e+001  1.905000e+001
    endloop
  endfacet
  facet normal  6.343974e-001 -7.730070e-001  0.000000e+000
    outer loop
      vertex  8.970557e+001 -3.283147e+001  1.905000e+001
      vertex  8.985711e+001 -3.270711e+001  2.105000e+001
      vertex  8.970557e+001 -3.283147e+001  2.105000e+001
    endloop
  endfacet
  facet normal  4.713799e-001 -8.819302e-001  0.000000e+000
    outer loop
      vertex  8.970557e+001 -3.283147e+001  1.905000e+001
      vertex  8.970557e+001 -3.283147e+001  2.105000e+001
      vertex  8.953268e+001 -3.292388e+001  1.905000e+001
    endloop
  endfacet
  facet normal  4.713799e-001 -8.819302e-001  0.000000e+000
    outer loop
      vertex  8.953268e+001 -3.292388e+001  1.905000e+001
      vertex  8.970557e+001 -3.283147e+001  2.105000e+001
      vertex  8.953268e+001 -3.292388e+001  2.105000e+001
    endloop
  endfacet
  facet normal  2.902958e-001 -9.569370e-001  0.000000e+000
    outer loop
      vertex  8.953268e+001 -3.292388e+001  1.905000e+001
      vertex  8.953268e+001 -3.292388e+001  2.105000e+001
      vertex  8.934509e+001 -3.298079e+001  1.905000e+001
    endloop
  endfacet
  facet normal  2.902958e-001 -9.569370e-001  0.000000e+000
    outer loop
      vertex  8.934509e+001 -3.298079e+001  1.905000e+001
      vertex  8.953268e+001 -3.292388e+001  2.105000e+001
      vertex  8.934509e+001 -3.298079e+001  2.105000e+001
    endloop
  endfacet
  facet normal  9.801622e-002 -9.951848e-001  0.000000e+000
    outer loop
      vertex  8.934509e+001 -3.298079e+001  1.905000e+001
      vertex  8.934509e+001 -3.298079e+001  2.105000e+001
      vertex  8.915000e+001 -3.300000e+001  1.905000e+001
    endloop
  endfacet
  facet normal  9.801622e-002 -9.951848e-001  0.000000e+000
    outer loop
      vertex  8.915000e+001 -3.300000e+001  1.905000e+001
      vertex  8.934509e+001 -3.298079e+001  2.105000e+001
      vertex  8.915000e+001 -3.300000e+001  2.105000e+001
    endloop
  endfacet
  facet normal  1.000000e+000  -0.000000e+000  0.000000e+000
    outer loop
      vertex  9.015000e+001 -2.200000e+001  2.105000e+001
      vertex  9.015000e+001 -3.200000e+001  2.105000e+001
      vertex  9.015000e+001 -2.200000e+001  1.905000e+001
    endloop
  endfacet
  facet normal  1.000000e+000  0.000000e+000  0.000000e+000
    outer loop
      vertex  9.015000e+001 -2.200000e+001  1.905000e+001
      vertex  9.015000e+001 -3.200000e+001  2.105000e+001
      vertex  9.015000e+001 -3.200000e+001  1.905000e+001
    endloop
  endfacet
endsolid SHAPE STL
