solid SHAPE STL
  facet normal  0.000000e+000  -0.000000e+000 -1.000000e+000
    outer loop
      vertex -6.590000e+001 -9.190000e+001  1.905000e+001
      vertex -6.395000e+001 -7.785000e+001  1.905000e+001
      vertex -6.395000e+001 -9.045000e+001  1.905000e+001
    endloop
  endfacet
  facet normal  0.000000e+000  -0.000000e+000 -1.000000e+000
    outer loop
      vertex -6.590000e+001 -9.190000e+001  1.905000e+001
      vertex -6.395000e+001 -9.045000e+001  1.905000e+001
      vertex -6.394039e+001 -9.054755e+001  1.905000e+001
    endloop
  endfacet
  facet normal  0.000000e+000  -0.000000e+000 -1.000000e+000
    outer loop
      vertex -6.590000e+001 -9.190000e+001  1.905000e+001
      vertex -6.394039e+001 -9.054755e+001  1.905000e+001
      vertex -6.391194e+001 -9.064134e+001  1.905000e+001
    endloop
  endfacet
  facet normal  0.000000e+000  -0.000000e+000 -1.000000e+000
    outer loop
      vertex -6.590000e+001 -9.190000e+001  1.905000e+001
      vertex -6.391194e+001 -9.064134e+001  1.905000e+001
      vertex -6.386573e+001 -9.072778e+001  1.905000e+001
    endloop
  endfacet
  facet normal  0.000000e+000  -0.000000e+000 -1.000000e+000
    outer loop
      vertex -6.590000e+001 -9.190000e+001  1.905000e+001
      vertex -6.386573e+001 -9.072778e+001  1.905000e+001
      vertex -6.380355e+001 -9.080355e+001  1.905000e+001
    endloop
  endfacet
  facet normal  0.000000e+000  -0.000000e+000 -9.999999e-001
    outer loop
      vertex -6.590000e+001 -9.190000e+001  1.905000e+001
      vertex -6.380355e+001 -9.080355e+001  1.905000e+001
      vertex -6.372779e+001 -9.086574e+001  1.905000e+001
    endloop
  endfacet
  facet normal  0.000000e+000  -0.000000e+000 -1.000000e+000
    outer loop
      vertex -6.590000e+001 -9.190000e+001  1.905000e+001
      vertex -6.372779e+001 -9.086574e+001  1.905000e+001
      vertex -6.364134e+001 -9.091194e+001  1.905000e+001
    endloop
  endfacet
  facet normal  0.000000e+000  -0.000000e+000 -1.000000e+000
    outer loop
      vertex -6.590000e+001 -9.190000e+001  1.905000e+001
      vertex -6.364134e+001 -9.091194e+001  1.905000e+001
      vertex -6.354755e+001 -9.094039e+001  1.905000e+001
    endloop
  endfacet
  facet normal  0.000000e+000  -0.000000e+000 -1.000000e+000
    outer loop
      vertex -6.590000e+001 -9.190000e+001  1.905000e+001
      vertex -6.354755e+001 -9.094039e+001  1.905000e+001
      vertex -6.345000e+001 -9.095000e+001  1.905000e+001
    endloop
  endfacet
  facet normal  0.000000e+000  0.000000e+000 -1.000000e+000
    outer loop
      vertex -6.590000e+001 -9.190000e+001  1.905000e+001
      vertex -6.345000e+001 -9.095000e+001  1.905000e+001
      vertex -6.490000e+001 -9.290000e+001  1.905000e+001
    endloop
  endfacet
  facet normal  0.000000e+000  0.000000e+000 -1.000000e+000
    outer loop
      vertex -6.590000e+001 -9.190000e+001  1.905000e+001
      vertex -6.490000e+001 -9.290000e+001  1.905000e+001
      vertex -6.509509e+001 -9.288078e+001  1.905000e+001
    endloop
  endfacet
  facet normal  0.000000e+000  0.000000e+000 -1.000000e+000
    outer loop
      vertex -6.590000e+001 -9.190000e+001  1.905000e+001
      vertex -6.509509e+001 -9.288078e+001  1.905000e+001
      vertex -6.528268e+001 -9.282388e+001  1.905000e+001
    endloop
  endfacet
  facet normal  0.000000e+000  0.000000e+000 -1.000000e+000
    outer loop
      vertex -6.590000e+001 -9.190000e+001  1.905000e+001
      vertex -6.528268e+001 -9.282388e+001  1.905000e+001
      vertex -6.545557e+001 -9.273147e+001  1.905000e+001
    endloop
  endfacet
  facet normal  0.000000e+000  0.000000e+000 -1.000000e+000
    outer loop
      vertex -6.590000e+001 -9.190000e+001  1.905000e+001
      vertex -6.545557e+001 -9.273147e+001  1.905000e+001
      vertex -6.560711e+001 -9.260711e+001  1.905000e+001
    endloop
  endfacet
  facet normal  0.000000e+000  0.000000e+000 -1.000000e+000
    outer loop
      vertex -6.590000e+001 -9.190000e+001  1.905000e+001
      vertex -6.560711e+001 -9.260711e+001  1.905000e+001
      vertex -6.573147e+001 -9.245557e+001  1.905000e+001
    endloop
  endfacet
  facet normal  0.000000e+000  0.000000e+000 -9.999999e-001
    outer loop
      vertex -6.590000e+001 -9.190000e+001  1.905000e+001
      vertex -6.573147e+001 -9.245557e+001  1.905000e+001
      vertex -6.582388e+001 -9.228268e+001  1.905000e+001
    endloop
  endfacet
  facet normal  0.000000e+000  0.000000e+000 -1.000000e+000
    outer loop
      vertex -6.590000e+001 -9.190000e+001  1.905000e+001
      vertex -6.582388e+001 -9.228268e+001  1.905000e+001
      vertex -6.588078e+001 -9.209509e+001  1.905000e+001
    endloop
  endfacet
  facet normal  -0.000000e+000  0.000000e+000 -1.000000e+000
    outer loop
      vertex -5.085000e+001 -9.095000e+001  1.905000e+001
      vertex -4.840000e+001 -9.190000e+001  1.905000e+001
      vertex -4.841922e+001 -9.209509e+001  1.905000e+001
    endloop
  endfacet
  facet normal  -0.000000e+000  0.000000e+000 -1.000000e+000
    outer loop
      vertex -5.085000e+001 -9.095000e+001  1.905000e+001
      vertex -4.841922e+001 -9.209509e+001  1.905000e+001
      vertex -4.847612e+001 -9.228268e+001  1.905000e+001
    endloop
  endfacet
  facet normal  -0.000000e+000  0.000000e+000 -1.000000e+000
    outer loop
      vertex -5.085000e+001 -9.095000e+001  1.905000e+001
      vertex -4.847612e+001 -9.228268e+001  1.905000e+001
      vertex -4.856853e+001 -9.245557e+001  1.905000e+001
    endloop
  endfacet
  facet normal  -0.000000e+000  0.000000e+000 -1.000000e+000
    outer loop
      vertex -5.085000e+001 -9.095000e+001  1.905000e+001
      vertex -4.856853e+001 -9.245557e+001  1.905000e+001
      vertex -4.869289e+001 -9.260711e+001  1.905000e+001
    endloop
  endfacet
  facet normal  -0.000000e+000  0.000000e+000 -1.000000e+000
    outer loop
      vertex -5.085000e+001 -9.095000e+001  1.905000e+001
      vertex -4.869289e+001 -9.260711e+001  1.905000e+001
      vertex -4.884443e+001 -9.273147e+001  1.905000e+001
    endloop
  endfacet
  facet normal  -0.000000e+000  0.000000e+000 -9.999999e-001
    outer loop
      vertex -5.085000e+001 -9.095000e+001  1.905000e+001
      vertex -4.884443e+001 -9.273147e+001  1.905000e+001
      vertex -4.901731e+001 -9.282388e+001  1.905000e+001
    endloop
  endfacet
  facet normal  -0.000000e+000  0.000000e+000 -1.000000e+000
    outer loop
      vertex -5.085000e+001 -9.095000e+001  1.905000e+001
      vertex -4.901731e+001 -9.282388e+001  1.905000e+001
      vertex -4.920491e+001 -9.288078e+001  1.905000e+001
    endloop
  endfacet
  facet normal  -0.000000e+000  0.000000e+000 -9.999999e-001
    outer loop
      vertex -5.085000e+001 -9.095000e+001  1.905000e+001
      vertex -4.920491e+001 -9.288078e+001  1.905000e+001
      vertex -4.940000e+001 -9.290000e+001  1.905000e+001
    endloop
  endfacet
  facet normal  0.000000e+000  0.000000e+000 -9.999999e-001
    outer loop
      vertex -5.085000e+001 -9.095000e+001  1.905000e+001
      vertex -4.940000e+001 -9.290000e+001  1.905000e+001
      vertex -6.490000e+001 -9.290000e+001  1.905000e+001
    endloop
  endfacet
  facet normal  0.000000e+000  0.000000e+000 -1.000000e+000
    outer loop
      vertex -5.085000e+001 -9.095000e+001  1.905000e+001
      vertex -6.490000e+001 -9.290000e+001  1.905000e+001
      vertex -6.345000e+001 -9.095000e+001  1.905000e+001
    endloop
  endfacet
  facet normal  0.000000e+000  -0.000000e+000 -1.000000e+000
    outer loop
      vertex -6.590000e+001 -7.640000e+001  1.905000e+001
      vertex -6.588078e+001 -7.620491e+001  1.905000e+001
      vertex -6.582388e+001 -7.601732e+001  1.905000e+001
    endloop
  endfacet
  facet normal  0.000000e+000  -0.000000e+000 -9.999999e-001
    outer loop
      vertex -6.590000e+001 -7.640000e+001  1.905000e+001
      vertex -6.582388e+001 -7.601732e+001  1.905000e+001
      vertex -6.573147e+001 -7.584443e+001  1.905000e+001
    endloop
  endfacet
  facet normal  0.000000e+000  -0.000000e+000 -1.000000e+000
    outer loop
      vertex -6.590000e+001 -7.640000e+001  1.905000e+001
      vertex -6.573147e+001 -7.584443e+001  1.905000e+001
      vertex -6.560711e+001 -7.569289e+001  1.905000e+001
    endloop
  endfacet
  facet normal  0.000000e+000  -0.000000e+000 -1.000000e+000
    outer loop
      vertex -6.590000e+001 -7.640000e+001  1.905000e+001
      vertex -6.560711e+001 -7.569289e+001  1.905000e+001
      vertex -6.545557e+001 -7.556853e+001  1.905000e+001
    endloop
  endfacet
  facet normal  0.000000e+000  -0.000000e+000 -1.000000e+000
    outer loop
      vertex -6.590000e+001 -7.640000e+001  1.905000e+001
      vertex -6.545557e+001 -7.556853e+001  1.905000e+001
      vertex -6.528268e+001 -7.547612e+001  1.905000e+001
    endloop
  endfacet
  facet normal  0.000000e+000  -0.000000e+000 -1.000000e+000
    outer loop
      vertex -6.590000e+001 -7.640000e+001  1.905000e+001
      vertex -6.528268e+001 -7.547612e+001  1.905000e+001
      vertex -6.509509e+001 -7.541921e+001  1.905000e+001
    endloop
  endfacet
  facet normal  0.000000e+000  -0.000000e+000 -1.000000e+000
    outer loop
      vertex -6.590000e+001 -7.640000e+001  1.905000e+001
      vertex -6.509509e+001 -7.541921e+001  1.905000e+001
      vertex -6.490000e+001 -7.540000e+001  1.905000e+001
    endloop
  endfacet
  facet normal  0.000000e+000  -0.000000e+000 -1.000000e+000
    outer loop
      vertex -6.590000e+001 -7.640000e+001  1.905000e+001
      vertex -6.490000e+001 -7.540000e+001  1.905000e+001
      vertex -6.345000e+001 -7.735000e+001  1.905000e+001
    endloop
  endfacet
  facet normal  -0.000000e+000  0.000000e+000 -1.000000e+000
    outer loop
      vertex -6.590000e+001 -7.640000e+001  1.905000e+001
      vertex -6.345000e+001 -7.735000e+001  1.905000e+001
      vertex -6.354755e+001 -7.735960e+001  1.905000e+001
    endloop
  endfacet
  facet normal  -0.000000e+000  0.000000e+000 -1.000000e+000
    outer loop
      vertex -6.590000e+001 -7.640000e+001  1.905000e+001
      vertex -6.354755e+001 -7.735960e+001  1.905000e+001
      vertex -6.364134e+001 -7.738806e+001  1.905000e+001
    endloop
  endfacet
  facet normal  -0.000000e+000  0.000000e+000 -1.000000e+000
    outer loop
      vertex -6.590000e+001 -7.640000e+001  1.905000e+001
      vertex -6.364134e+001 -7.738806e+001  1.905000e+001
      vertex -6.372779e+001 -7.743427e+001  1.905000e+001
    endloop
  endfacet
  facet normal  -0.000000e+000  0.000000e+000 -1.000000e+000
    outer loop
      vertex -6.590000e+001 -7.640000e+001  1.905000e+001
      vertex -6.372779e+001 -7.743427e+001  1.905000e+001
      vertex -6.380355e+001 -7.749644e+001  1.905000e+001
    endloop
  endfacet
  facet normal  -0.000000e+000  0.000000e+000 -9.999999e-001
    outer loop
      vertex -6.590000e+001 -7.640000e+001  1.905000e+001
      vertex -6.380355e+001 -7.749644e+001  1.905000e+001
      vertex -6.386573e+001 -7.757221e+001  1.905000e+001
    endloop
  endfacet
  facet normal  -0.000000e+000  0.000000e+000 -1.000000e+000
    outer loop
      vertex -6.590000e+001 -7.640000e+001  1.905000e+001
      vertex -6.386573e+001 -7.757221e+001  1.905000e+001
      vertex -6.391194e+001 -7.765866e+001  1.905000e+001
    endloop
  endfacet
  facet normal  -0.000000e+000  0.000000e+000 -1.000000e+000
    outer loop
      vertex -6.590000e+001 -7.640000e+001  1.905000e+001
      vertex -6.391194e+001 -7.765866e+001  1.905000e+001
      vertex -6.394039e+001 -7.775246e+001  1.905000e+001
    endloop
  endfacet
  facet normal  -0.000000e+000  0.000000e+000 -9.999999e-001
    outer loop
      vertex -6.590000e+001 -7.640000e+001  1.905000e+001
      vertex -6.394039e+001 -7.775246e+001  1.905000e+001
      vertex -6.395000e+001 -7.785000e+001  1.905000e+001
    endloop
  endfacet
  facet normal  -0.000000e+000  0.000000e+000 -1.000000e+000
    outer loop
      vertex -6.590000e+001 -7.640000e+001  1.905000e+001
      vertex -6.395000e+001 -7.785000e+001  1.905000e+001
      vertex -6.590000e+001 -9.190000e+001  1.905000e+001
    endloop
  endfacet
  facet normal  0.000000e+000  0.000000e+000 -9.999999e-001
    outer loop
      vertex -5.085000e+001 -7.735000e+001  1.905000e+001
      vertex -6.345000e+001 -7.735000e+001  1.905000e+001
      vertex -6.490000e+001 -7.540000e+001  1.905000e+001
    endloop
  endfacet
  facet normal  0.000000e+000  0.000000e+000 -1.000000e+000
    outer loop
      vertex -5.085000e+001 -7.735000e+001  1.905000e+001
      vertex -6.490000e+001 -7.540000e+001  1.905000e+001
      vertex -4.940000e+001 -7.540000e+001  1.905000e+001
    endloop
  endfacet
  facet normal  0.000000e+000  -0.000000e+000 -1.000000e+000
    outer loop
      vertex -5.085000e+001 -7.735000e+001  1.905000e+001
      vertex -4.940000e+001 -7.540000e+001  1.905000e+001
      vertex -4.920491e+001 -7.541921e+001  1.905000e+001
    endloop
  endfacet
  facet normal  0.000000e+000  -0.000000e+000 -1.000000e+000
    outer loop
      vertex -5.085000e+001 -7.735000e+001  1.905000e+001
      vertex -4.920491e+001 -7.541921e+001  1.905000e+001
      vertex -4.901731e+001 -7.547612e+001  1.905000e+001
    endloop
  endfacet
  facet normal  0.000000e+000  -0.000000e+000 -1.000000e+000
    outer loop
      vertex -5.085000e+001 -7.735000e+001  1.905000e+001
      vertex -4.901731e+001 -7.547612e+001  1.905000e+001
      vertex -4.884443e+001 -7.556853e+001  1.905000e+001
    endloop
  endfacet
  facet normal  0.000000e+000  -0.000000e+000 -1.000000e+000
    outer loop
      vertex -5.085000e+001 -7.735000e+001  1.905000e+001
      vertex -4.884443e+001 -7.556853e+001  1.905000e+001
      vertex -4.869289e+001 -7.569289e+001  1.905000e+001
    endloop
  endfacet
  facet normal  0.000000e+000  -0.000000e+000 -1.000000e+000
    outer loop
      vertex -5.085000e+001 -7.735000e+001  1.905000e+001
      vertex -4.869289e+001 -7.569289e+001  1.905000e+001
      vertex -4.856853e+001 -7.584443e+001  1.905000e+001
    endloop
  endfacet
  facet normal  0.000000e+000  -0.000000e+000 -1.000000e+000
    outer loop
      vertex -5.085000e+001 -7.735000e+001  1.905000e+001
      vertex -4.856853e+001 -7.584443e+001  1.905000e+001
      vertex -4.847612e+001 -7.601732e+001  1.905000e+001
    endloop
  endfacet
  facet normal  0.000000e+000  -0.000000e+000 -1.000000e+000
    outer loop
      vertex -5.085000e+001 -7.735000e+001  1.905000e+001
      vertex -4.847612e+001 -7.601732e+001  1.905000e+001
      vertex -4.841922e+001 -7.620491e+001  1.905000e+001
    endloop
  endfacet
  facet normal  0.000000e+000  -0.000000e+000 -9.999999e-001
    outer loop
      vertex -5.085000e+001 -7.735000e+001  1.905000e+001
      vertex -4.841922e+001 -7.620491e+001  1.905000e+001
      vertex -4.840000e+001 -7.640000e+001  1.905000e+001
    endloop
  endfacet
  facet normal  0.000000e+000  0.000000e+000 -9.999999e-001
    outer loop
      vertex -4.840000e+001 -9.190000e+001  1.905000e+001
      vertex -5.085000e+001 -9.095000e+001  1.905000e+001
      vertex -5.075246e+001 -9.094039e+001  1.905000e+001
    endloop
  endfacet
  facet normal  0.000000e+000  0.000000e+000 -1.000000e+000
    outer loop
      vertex -4.840000e+001 -9.190000e+001  1.905000e+001
      vertex -5.075246e+001 -9.094039e+001  1.905000e+001
      vertex -5.065866e+001 -9.091194e+001  1.905000e+001
    endloop
  endfacet
  facet normal  0.000000e+000  0.000000e+000 -1.000000e+000
    outer loop
      vertex -4.840000e+001 -9.190000e+001  1.905000e+001
      vertex -5.065866e+001 -9.091194e+001  1.905000e+001
      vertex -5.057222e+001 -9.086574e+001  1.905000e+001
    endloop
  endfacet
  facet normal  0.000000e+000  0.000000e+000 -1.000000e+000
    outer loop
      vertex -4.840000e+001 -9.190000e+001  1.905000e+001
      vertex -5.057222e+001 -9.086574e+001  1.905000e+001
      vertex -5.049644e+001 -9.080355e+001  1.905000e+001
    endloop
  endfacet
  facet normal  0.000000e+000  0.000000e+000 -1.000000e+000
    outer loop
      vertex -4.840000e+001 -9.190000e+001  1.905000e+001
      vertex -5.049644e+001 -9.080355e+001  1.905000e+001
      vertex -5.043427e+001 -9.072778e+001  1.905000e+001
    endloop
  endfacet
  facet normal  0.000000e+000  0.000000e+000 -1.000000e+000
    outer loop
      vertex -4.840000e+001 -9.190000e+001  1.905000e+001
      vertex -5.043427e+001 -9.072778e+001  1.905000e+001
      vertex -5.038806e+001 -9.064134e+001  1.905000e+001
    endloop
  endfacet
  facet normal  0.000000e+000  0.000000e+000 -1.000000e+000
    outer loop
      vertex -4.840000e+001 -9.190000e+001  1.905000e+001
      vertex -5.038806e+001 -9.064134e+001  1.905000e+001
      vertex -5.035961e+001 -9.054755e+001  1.905000e+001
    endloop
  endfacet
  facet normal  0.000000e+000  0.000000e+000 -1.000000e+000
    outer loop
      vertex -4.840000e+001 -9.190000e+001  1.905000e+001
      vertex -5.035961e+001 -9.054755e+001  1.905000e+001
      vertex -5.035000e+001 -9.045000e+001  1.905000e+001
    endloop
  endfacet
  facet normal  0.000000e+000  0.000000e+000 -1.000000e+000
    outer loop
      vertex -4.840000e+001 -9.190000e+001  1.905000e+001
      vertex -5.035000e+001 -9.045000e+001  1.905000e+001
      vertex -5.035000e+001 -7.785000e+001  1.905000e+001
    endloop
  endfacet
  facet normal  0.000000e+000  0.000000e+000 -1.000000e+000
    outer loop
      vertex -4.840000e+001 -7.640000e+001  1.905000e+001
      vertex -4.840000e+001 -9.190000e+001  1.905000e+001
      vertex -5.035000e+001 -7.785000e+001  1.905000e+001
    endloop
  endfacet
  facet normal  0.000000e+000  0.000000e+000 -1.000000e+000
    outer loop
      vertex -4.840000e+001 -7.640000e+001  1.905000e+001
      vertex -5.035000e+001 -7.785000e+001  1.905000e+001
      vertex -5.035961e+001 -7.775246e+001  1.905000e+001
    endloop
  endfacet
  facet normal  0.000000e+000  0.000000e+000 -1.000000e+000
    outer loop
      vertex -4.840000e+001 -7.640000e+001  1.905000e+001
      vertex -5.035961e+001 -7.775246e+001  1.905000e+001
      vertex -5.038806e+001 -7.765866e+001  1.905000e+001
    endloop
  endfacet
  facet normal  0.000000e+000  0.000000e+000 -9.999999e-001
    outer loop
      vertex -4.840000e+001 -7.640000e+001  1.905000e+001
      vertex -5.038806e+001 -7.765866e+001  1.905000e+001
      vertex -5.043427e+001 -7.757221e+001  1.905000e+001
    endloop
  endfacet
  facet normal  0.000000e+000  0.000000e+000 -1.000000e+000
    outer loop
      vertex -4.840000e+001 -7.640000e+001  1.905000e+001
      vertex -5.043427e+001 -7.757221e+001  1.905000e+001
      vertex -5.049644e+001 -7.749644e+001  1.905000e+001
    endloop
  endfacet
  facet normal  0.000000e+000  0.000000e+000 -9.999999e-001
    outer loop
      vertex -4.840000e+001 -7.640000e+001  1.905000e+001
      vertex -5.049644e+001 -7.749644e+001  1.905000e+001
      vertex -5.057222e+001 -7.743427e+001  1.905000e+001
    endloop
  endfacet
  facet normal  0.000000e+000  0.000000e+000 -1.000000e+000
    outer loop
      vertex -4.840000e+001 -7.640000e+001  1.905000e+001
      vertex -5.057222e+001 -7.743427e+001  1.905000e+001
      vertex -5.065866e+001 -7.738806e+001  1.905000e+001
    endloop
  endfacet
  facet normal  0.000000e+000  0.000000e+000 -1.000000e+000
    outer loop
      vertex -4.840000e+001 -7.640000e+001  1.905000e+001
      vertex -5.065866e+001 -7.738806e+001  1.905000e+001
      vertex -5.075246e+001 -7.735960e+001  1.905000e+001
    endloop
  endfacet
  facet normal  0.000000e+000  0.000000e+000 -1.000000e+000
    outer loop
      vertex -4.840000e+001 -7.640000e+001  1.905000e+001
      vertex -5.075246e+001 -7.735960e+001  1.905000e+001
      vertex -5.085000e+001 -7.735000e+001  1.905000e+001
    endloop
  endfacet
  facet normal  1.000000e+000  0.000000e+000  0.000000e+000
    outer loop
      vertex -5.035000e+001 -9.045000e+001  1.775000e+001
      vertex -5.035000e+001 -7.785000e+001  1.775000e+001
      vertex -5.035000e+001 -9.045000e+001  1.905000e+001
    endloop
  endfacet
  facet normal  1.000000e+000  -0.000000e+000  0.000000e+000
    outer loop
      vertex -5.035000e+001 -9.045000e+001  1.905000e+001
      vertex -5.035000e+001 -7.785000e+001  1.775000e+001
      vertex -5.035000e+001 -7.785000e+001  1.905000e+001
    endloop
  endfacet
  facet normal  9.951826e-001  9.803930e-002  -0.000000e+000
    outer loop
      vertex -5.035000e+001 -7.785000e+001  1.905000e+001
      vertex -5.035000e+001 -7.785000e+001  1.775000e+001
      vertex -5.035961e+001 -7.775246e+001  1.905000e+001
    endloop
  endfacet
  facet normal  9.951826e-001  9.803930e-002  0.000000e+000
    outer loop
      vertex -5.035961e+001 -7.775246e+001  1.905000e+001
      vertex -5.035000e+001 -7.785000e+001  1.775000e+001
      vertex -5.035961e+001 -7.775246e+001  1.775000e+001
    endloop
  endfacet
  facet normal  9.569370e-001  2.902958e-001  -0.000000e+000
    outer loop
      vertex -5.035961e+001 -7.775246e+001  1.905000e+001
      vertex -5.035961e+001 -7.775246e+001  1.775000e+001
      vertex -5.038806e+001 -7.765866e+001  1.905000e+001
    endloop
  endfacet
  facet normal  9.569370e-001  2.902958e-001  0.000000e+000
    outer loop
      vertex -5.038806e+001 -7.765866e+001  1.905000e+001
      vertex -5.035961e+001 -7.775246e+001  1.775000e+001
      vertex -5.038806e+001 -7.765866e+001  1.775000e+001
    endloop
  endfacet
  facet normal  8.819389e-001  4.713637e-001  -0.000000e+000
    outer loop
      vertex -5.038806e+001 -7.765866e+001  1.905000e+001
      vertex -5.038806e+001 -7.765866e+001  1.775000e+001
      vertex -5.043427e+001 -7.757221e+001  1.905000e+001
    endloop
  endfacet
  facet normal  8.819389e-001  4.713637e-001  0.000000e+000
    outer loop
      vertex -5.043427e+001 -7.757221e+001  1.905000e+001
      vertex -5.038806e+001 -7.765866e+001  1.775000e+001
      vertex -5.043427e+001 -7.757221e+001  1.775000e+001
    endloop
  endfacet
  facet normal  7.730166e-001  6.343858e-001  -0.000000e+000
    outer loop
      vertex -5.043427e+001 -7.757221e+001  1.905000e+001
      vertex -5.043427e+001 -7.757221e+001  1.775000e+001
      vertex -5.049644e+001 -7.749644e+001  1.905000e+001
    endloop
  endfacet
  facet normal  7.730166e-001  6.343858e-001  0.000000e+000
    outer loop
      vertex -5.049644e+001 -7.749644e+001  1.905000e+001
      vertex -5.043427e+001 -7.757221e+001  1.775000e+001
      vertex -5.049644e+001 -7.749644e+001  1.775000e+001
    endloop
  endfacet
  facet normal  6.343667e-001  7.730322e-001  -0.000000e+000
    outer loop
      vertex -5.049644e+001 -7.749644e+001  1.905000e+001
      vertex -5.049644e+001 -7.749644e+001  1.775000e+001
      vertex -5.057222e+001 -7.743427e+001  1.905000e+001
    endloop
  endfacet
  facet normal  6.343667e-001  7.730322e-001  0.000000e+000
    outer loop
      vertex -5.057222e+001 -7.743427e+001  1.905000e+001
      vertex -5.049644e+001 -7.749644e+001  1.775000e+001
      vertex -5.057222e+001 -7.743427e+001  1.775000e+001
    endloop
  endfacet
  facet normal  4.713960e-001  8.819216e-001  -0.000000e+000
    outer loop
      vertex -5.057222e+001 -7.743427e+001  1.905000e+001
      vertex -5.057222e+001 -7.743427e+001  1.775000e+001
      vertex -5.065866e+001 -7.738806e+001  1.905000e+001
    endloop
  endfacet
  facet normal  4.713960e-001  8.819216e-001  0.000000e+000
    outer loop
      vertex -5.065866e+001 -7.738806e+001  1.905000e+001
      vertex -5.057222e+001 -7.743427e+001  1.775000e+001
      vertex -5.065866e+001 -7.738806e+001  1.775000e+001
    endloop
  endfacet
  facet normal  2.903206e-001  9.569294e-001  -0.000000e+000
    outer loop
      vertex -5.065866e+001 -7.738806e+001  1.905000e+001
      vertex -5.065866e+001 -7.738806e+001  1.775000e+001
      vertex -5.075246e+001 -7.735960e+001  1.905000e+001
    endloop
  endfacet
  facet normal  2.903206e-001  9.569294e-001  0.000000e+000
    outer loop
      vertex -5.075246e+001 -7.735960e+001  1.905000e+001
      vertex -5.065866e+001 -7.738806e+001  1.775000e+001
      vertex -5.075246e+001 -7.735960e+001  1.775000e+001
    endloop
  endfacet
  facet normal  9.800076e-002  9.951863e-001  -0.000000e+000
    outer loop
      vertex -5.075246e+001 -7.735960e+001  1.905000e+001
      vertex -5.075246e+001 -7.735960e+001  1.775000e+001
      vertex -5.085000e+001 -7.735000e+001  1.905000e+001
    endloop
  endfacet
  facet normal  9.800076e-002  9.951863e-001  0.000000e+000
    outer loop
      vertex -5.085000e+001 -7.735000e+001  1.905000e+001
      vertex -5.075246e+001 -7.735960e+001  1.775000e+001
      vertex -5.085000e+001 -7.735000e+001  1.775000e+001
    endloop
  endfacet
  facet normal  0.000000e+000  1.000000e+000  0.000000e+000
    outer loop
      vertex -5.085000e+001 -7.735000e+001  1.775000e+001
      vertex -6.345000e+001 -7.735000e+001  1.775000e+001
      vertex -5.085000e+001 -7.735000e+001  1.905000e+001
    endloop
  endfacet
  facet normal  0.000000e+000  1.000000e+000  0.000000e+000
    outer loop
      vertex -5.085000e+001 -7.735000e+001  1.905000e+001
      vertex -6.345000e+001 -7.735000e+001  1.775000e+001
      vertex -6.345000e+001 -7.735000e+001  1.905000e+001
    endloop
  endfacet
  facet normal -9.799697e-002  9.951867e-001  0.000000e+000
    outer loop
      vertex -6.345000e+001 -7.735000e+001  1.905000e+001
      vertex -6.345000e+001 -7.735000e+001  1.775000e+001
      vertex -6.354755e+001 -7.735960e+001  1.905000e+001
    endloop
  endfacet
  facet normal -9.799697e-002  9.951867e-001  0.000000e+000
    outer loop
      vertex -6.354755e+001 -7.735960e+001  1.905000e+001
      vertex -6.345000e+001 -7.735000e+001  1.775000e+001
      vertex -6.354755e+001 -7.735960e+001  1.775000e+001
    endloop
  endfacet
  facet normal -2.903314e-001  9.569262e-001  0.000000e+000
    outer loop
      vertex -6.354755e+001 -7.735960e+001  1.905000e+001
      vertex -6.354755e+001 -7.735960e+001  1.775000e+001
      vertex -6.364134e+001 -7.738806e+001  1.905000e+001
    endloop
  endfacet
  facet normal -2.903314e-001  9.569262e-001  0.000000e+000
    outer loop
      vertex -6.364134e+001 -7.738806e+001  1.905000e+001
      vertex -6.354755e+001 -7.735960e+001  1.775000e+001
      vertex -6.364134e+001 -7.738806e+001  1.775000e+001
    endloop
  endfacet
  facet normal -4.713799e-001  8.819303e-001  0.000000e+000
    outer loop
      vertex -6.364134e+001 -7.738806e+001  1.905000e+001
      vertex -6.364134e+001 -7.738806e+001  1.775000e+001
      vertex -6.372779e+001 -7.743427e+001  1.905000e+001
    endloop
  endfacet
  facet normal -4.713799e-001  8.819303e-001  0.000000e+000
    outer loop
      vertex -6.372779e+001 -7.743427e+001  1.905000e+001
      vertex -6.364134e+001 -7.738806e+001  1.775000e+001
      vertex -6.372779e+001 -7.743427e+001  1.775000e+001
    endloop
  endfacet
  facet normal -6.343858e-001  7.730166e-001  0.000000e+000
    outer loop
      vertex -6.372779e+001 -7.743427e+001  1.905000e+001
      vertex -6.372779e+001 -7.743427e+001  1.775000e+001
      vertex -6.380355e+001 -7.749644e+001  1.905000e+001
    endloop
  endfacet
  facet normal -6.343858e-001  7.730166e-001  0.000000e+000
    outer loop
      vertex -6.380355e+001 -7.749644e+001  1.905000e+001
      vertex -6.372779e+001 -7.743427e+001  1.775000e+001
      vertex -6.380355e+001 -7.749644e+001  1.775000e+001
    endloop
  endfacet
  facet normal -7.730166e-001  6.343858e-001  0.000000e+000
    outer loop
      vertex -6.380355e+001 -7.749644e+001  1.905000e+001
      vertex -6.380355e+001 -7.749644e+001  1.775000e+001
      vertex -6.386573e+001 -7.757221e+001  1.905000e+001
    endloop
  endfacet
  facet normal -7.730166e-001  6.343858e-001  0.000000e+000
    outer loop
      vertex -6.386573e+001 -7.757221e+001  1.905000e+001
      vertex -6.380355e+001 -7.749644e+001  1.775000e+001
      vertex -6.386573e+001 -7.757221e+001  1.775000e+001
    endloop
  endfacet
  facet normal -8.819228e-001  4.713940e-001  0.000000e+000
    outer loop
      vertex -6.386573e+001 -7.757221e+001  1.905000e+001
      vertex -6.386573e+001 -7.757221e+001  1.775000e+001
      vertex -6.391194e+001 -7.765866e+001  1.905000e+001
    endloop
  endfacet
  facet normal -8.819228e-001  4.713940e-001  0.000000e+000
    outer loop
      vertex -6.391194e+001 -7.765866e+001  1.905000e+001
      vertex -6.386573e+001 -7.757221e+001  1.775000e+001
      vertex -6.391194e+001 -7.765866e+001  1.775000e+001
    endloop
  endfacet
  facet normal -9.569478e-001  2.902602e-001  0.000000e+000
    outer loop
      vertex -6.391194e+001 -7.765866e+001  1.905000e+001
      vertex -6.391194e+001 -7.765866e+001  1.775000e+001
      vertex -6.394039e+001 -7.775246e+001  1.905000e+001
    endloop
  endfacet
  facet normal -9.569478e-001  2.902602e-001  0.000000e+000
    outer loop
      vertex -6.394039e+001 -7.775246e+001  1.905000e+001
      vertex -6.391194e+001 -7.765866e+001  1.775000e+001
      vertex -6.394039e+001 -7.775246e+001  1.775000e+001
    endloop
  endfacet
  facet normal -9.951826e-001  9.803930e-002  0.000000e+000
    outer loop
      vertex -6.394039e+001 -7.775246e+001  1.905000e+001
      vertex -6.394039e+001 -7.775246e+001  1.775000e+001
      vertex -6.395000e+001 -7.785000e+001  1.905000e+001
    endloop
  endfacet
  facet normal -9.951826e-001  9.803930e-002  0.000000e+000
    outer loop
      vertex -6.395000e+001 -7.785000e+001  1.905000e+001
      vertex -6.394039e+001 -7.775246e+001  1.775000e+001
      vertex -6.395000e+001 -7.785000e+001  1.775000e+001
    endloop
  endfacet
  facet normal -1.000000e+000  0.000000e+000  0.000000e+000
    outer loop
      vertex -6.395000e+001 -7.785000e+001  1.775000e+001
      vertex -6.395000e+001 -9.045000e+001  1.775000e+001
      vertex -6.395000e+001 -7.785000e+001  1.905000e+001
    endloop
  endfacet
  facet normal -1.000000e+000  -0.000000e+000  0.000000e+000
    outer loop
      vertex -6.395000e+001 -7.785000e+001  1.905000e+001
      vertex -6.395000e+001 -9.045000e+001  1.775000e+001
      vertex -6.395000e+001 -9.045000e+001  1.905000e+001
    endloop
  endfacet
  facet normal -9.951832e-001 -9.803168e-002  0.000000e+000
    outer loop
      vertex -6.395000e+001 -9.045000e+001  1.905000e+001
      vertex -6.395000e+001 -9.045000e+001  1.775000e+001
      vertex -6.394039e+001 -9.054755e+001  1.905000e+001
    endloop
  endfacet
  facet normal -9.951832e-001 -9.803168e-002  -0.000000e+000
    outer loop
      vertex -6.394039e+001 -9.054755e+001  1.905000e+001
      vertex -6.395000e+001 -9.045000e+001  1.775000e+001
      vertex -6.394039e+001 -9.054755e+001  1.775000e+001
    endloop
  endfacet
  facet normal -9.569478e-001 -2.902602e-001  0.000000e+000
    outer loop
      vertex -6.394039e+001 -9.054755e+001  1.905000e+001
      vertex -6.394039e+001 -9.054755e+001  1.775000e+001
      vertex -6.391194e+001 -9.064134e+001  1.905000e+001
    endloop
  endfacet
  facet normal -9.569478e-001 -2.902602e-001  -0.000000e+000
    outer loop
      vertex -6.391194e+001 -9.064134e+001  1.905000e+001
      vertex -6.394039e+001 -9.054755e+001  1.775000e+001
      vertex -6.391194e+001 -9.064134e+001  1.775000e+001
    endloop
  endfacet
  facet normal -8.819054e-001 -4.714263e-001  0.000000e+000
    outer loop
      vertex -6.391194e+001 -9.064134e+001  1.905000e+001
      vertex -6.391194e+001 -9.064134e+001  1.775000e+001
      vertex -6.386573e+001 -9.072778e+001  1.905000e+001
    endloop
  endfacet
  facet normal -8.819054e-001 -4.714263e-001  -0.000000e+000
    outer loop
      vertex -6.386573e+001 -9.072778e+001  1.905000e+001
      vertex -6.391194e+001 -9.064134e+001  1.775000e+001
      vertex -6.386573e+001 -9.072778e+001  1.775000e+001
    endloop
  endfacet
  facet normal -7.730166e-001 -6.343858e-001  0.000000e+000
    outer loop
      vertex -6.386573e+001 -9.072778e+001  1.905000e+001
      vertex -6.386573e+001 -9.072778e+001  1.775000e+001
      vertex -6.380355e+001 -9.080355e+001  1.905000e+001
    endloop
  endfacet
  facet normal -7.730166e-001 -6.343858e-001  -0.000000e+000
    outer loop
      vertex -6.380355e+001 -9.080355e+001  1.905000e+001
      vertex -6.386573e+001 -9.072778e+001  1.775000e+001
      vertex -6.380355e+001 -9.080355e+001  1.775000e+001
    endloop
  endfacet
  facet normal -6.344323e-001 -7.729784e-001  0.000000e+000
    outer loop
      vertex -6.380355e+001 -9.080355e+001  1.905000e+001
      vertex -6.380355e+001 -9.080355e+001  1.775000e+001
      vertex -6.372779e+001 -9.086574e+001  1.905000e+001
    endloop
  endfacet
  facet normal -6.344323e-001 -7.729784e-001  -0.000000e+000
    outer loop
      vertex -6.372779e+001 -9.086574e+001  1.905000e+001
      vertex -6.380355e+001 -9.080355e+001  1.775000e+001
      vertex -6.372779e+001 -9.086574e+001  1.775000e+001
    endloop
  endfacet
  facet normal -4.713799e-001 -8.819303e-001  0.000000e+000
    outer loop
      vertex -6.372779e+001 -9.086574e+001  1.905000e+001
      vertex -6.372779e+001 -9.086574e+001  1.775000e+001
      vertex -6.364134e+001 -9.091194e+001  1.905000e+001
    endloop
  endfacet
  facet normal -4.713799e-001 -8.819303e-001  -0.000000e+000
    outer loop
      vertex -6.364134e+001 -9.091194e+001  1.905000e+001
      vertex -6.372779e+001 -9.086574e+001  1.775000e+001
      vertex -6.364134e+001 -9.091194e+001  1.775000e+001
    endloop
  endfacet
  facet normal -2.902602e-001 -9.569478e-001  0.000000e+000
    outer loop
      vertex -6.364134e+001 -9.091194e+001  1.905000e+001
      vertex -6.364134e+001 -9.091194e+001  1.775000e+001
      vertex -6.354755e+001 -9.094039e+001  1.905000e+001
    endloop
  endfacet
  facet normal -2.902602e-001 -9.569478e-001  -0.000000e+000
    outer loop
      vertex -6.354755e+001 -9.094039e+001  1.905000e+001
      vertex -6.364134e+001 -9.091194e+001  1.775000e+001
      vertex -6.354755e+001 -9.094039e+001  1.775000e+001
    endloop
  endfacet
  facet normal -9.799697e-002 -9.951867e-001  0.000000e+000
    outer loop
      vertex -6.354755e+001 -9.094039e+001  1.905000e+001
      vertex -6.354755e+001 -9.094039e+001  1.775000e+001
      vertex -6.345000e+001 -9.095000e+001  1.905000e+001
    endloop
  endfacet
  facet normal -9.799697e-002 -9.951867e-001  -0.000000e+000
    outer loop
      vertex -6.345000e+001 -9.095000e+001  1.905000e+001
      vertex -6.354755e+001 -9.094039e+001  1.775000e+001
      vertex -6.345000e+001 -9.095000e+001  1.775000e+001
    endloop
  endfacet
  facet normal  0.000000e+000 -1.000000e+000  0.000000e+000
    outer loop
      vertex -6.345000e+001 -9.095000e+001  1.775000e+001
      vertex -5.085000e+001 -9.095000e+001  1.775000e+001
      vertex -6.345000e+001 -9.095000e+001  1.905000e+001
    endloop
  endfacet
  facet normal  0.000000e+000 -1.000000e+000  0.000000e+000
    outer loop
      vertex -6.345000e+001 -9.095000e+001  1.905000e+001
      vertex -5.085000e+001 -9.095000e+001  1.775000e+001
      vertex -5.085000e+001 -9.095000e+001  1.905000e+001
    endloop
  endfacet
  facet normal  9.800076e-002 -9.951863e-001  0.000000e+000
    outer loop
      vertex -5.085000e+001 -9.095000e+001  1.905000e+001
      vertex -5.085000e+001 -9.095000e+001  1.775000e+001
      vertex -5.075246e+001 -9.094039e+001  1.905000e+001
    endloop
  endfacet
  facet normal  9.800076e-002 -9.951863e-001  0.000000e+000
    outer loop
      vertex -5.075246e+001 -9.094039e+001  1.905000e+001
      vertex -5.085000e+001 -9.095000e+001  1.775000e+001
      vertex -5.075246e+001 -9.094039e+001  1.775000e+001
    endloop
  endfacet
  facet normal  2.902493e-001 -9.569510e-001  0.000000e+000
    outer loop
      vertex -5.075246e+001 -9.094039e+001  1.905000e+001
      vertex -5.075246e+001 -9.094039e+001  1.775000e+001
      vertex -5.065866e+001 -9.091194e+001  1.905000e+001
    endloop
  endfacet
  facet normal  2.902493e-001 -9.569510e-001  0.000000e+000
    outer loop
      vertex -5.065866e+001 -9.091194e+001  1.905000e+001
      vertex -5.075246e+001 -9.094039e+001  1.775000e+001
      vertex -5.065866e+001 -9.091194e+001  1.775000e+001
    endloop
  endfacet
  facet normal  4.713960e-001 -8.819216e-001  0.000000e+000
    outer loop
      vertex -5.065866e+001 -9.091194e+001  1.905000e+001
      vertex -5.065866e+001 -9.091194e+001  1.775000e+001
      vertex -5.057222e+001 -9.086574e+001  1.905000e+001
    endloop
  endfacet
  facet normal  4.713960e-001 -8.819216e-001  0.000000e+000
    outer loop
      vertex -5.057222e+001 -9.086574e+001  1.905000e+001
      vertex -5.065866e+001 -9.091194e+001  1.775000e+001
      vertex -5.057222e+001 -9.086574e+001  1.775000e+001
    endloop
  endfacet
  facet normal  6.344132e-001 -7.729941e-001  0.000000e+000
    outer loop
      vertex -5.057222e+001 -9.086574e+001  1.905000e+001
      vertex -5.057222e+001 -9.086574e+001  1.775000e+001
      vertex -5.049644e+001 -9.080355e+001  1.905000e+001
    endloop
  endfacet
  facet normal  6.344132e-001 -7.729941e-001  0.000000e+000
    outer loop
      vertex -5.049644e+001 -9.080355e+001  1.905000e+001
      vertex -5.057222e+001 -9.086574e+001  1.775000e+001
      vertex -5.049644e+001 -9.080355e+001  1.775000e+001
    endloop
  endfacet
  facet normal  7.730166e-001 -6.343858e-001  0.000000e+000
    outer loop
      vertex -5.049644e+001 -9.080355e+001  1.905000e+001
      vertex -5.049644e+001 -9.080355e+001  1.775000e+001
      vertex -5.043427e+001 -9.072778e+001  1.905000e+001
    endloop
  endfacet
  facet normal  7.730166e-001 -6.343858e-001  0.000000e+000
    outer loop
      vertex -5.043427e+001 -9.072778e+001  1.905000e+001
      vertex -5.049644e+001 -9.080355e+001  1.775000e+001
      vertex -5.043427e+001 -9.072778e+001  1.775000e+001
    endloop
  endfacet
  facet normal  8.819216e-001 -4.713960e-001  0.000000e+000
    outer loop
      vertex -5.043427e+001 -9.072778e+001  1.905000e+001
      vertex -5.043427e+001 -9.072778e+001  1.775000e+001
      vertex -5.038806e+001 -9.064134e+001  1.905000e+001
    endloop
  endfacet
  facet normal  8.819216e-001 -4.713960e-001  0.000000e+000
    outer loop
      vertex -5.038806e+001 -9.064134e+001  1.905000e+001
      vertex -5.043427e+001 -9.072778e+001  1.775000e+001
      vertex -5.038806e+001 -9.064134e+001  1.775000e+001
    endloop
  endfacet
  facet normal  9.569370e-001 -2.902958e-001  0.000000e+000
    outer loop
      vertex -5.038806e+001 -9.064134e+001  1.905000e+001
      vertex -5.038806e+001 -9.064134e+001  1.775000e+001
      vertex -5.035961e+001 -9.054755e+001  1.905000e+001
    endloop
  endfacet
  facet normal  9.569370e-001 -2.902958e-001  0.000000e+000
    outer loop
      vertex -5.035961e+001 -9.054755e+001  1.905000e+001
      vertex -5.038806e+001 -9.064134e+001  1.775000e+001
      vertex -5.035961e+001 -9.054755e+001  1.775000e+001
    endloop
  endfacet
  facet normal  9.951832e-001 -9.803168e-002  0.000000e+000
    outer loop
      vertex -5.035961e+001 -9.054755e+001  1.905000e+001
      vertex -5.035961e+001 -9.054755e+001  1.775000e+001
      vertex -5.035000e+001 -9.045000e+001  1.905000e+001
    endloop
  endfacet
  facet normal  9.951832e-001 -9.803168e-002  0.000000e+000
    outer loop
      vertex -5.035000e+001 -9.045000e+001  1.905000e+001
      vertex -5.035961e+001 -9.054755e+001  1.775000e+001
      vertex -5.035000e+001 -9.045000e+001  1.775000e+001
    endloop
  endfacet
  facet normal  0.000000e+000  0.000000e+000 -9.999999e-001
    outer loop
      vertex -5.085000e+001 -9.095000e+001  1.775000e+001
      vertex -6.354755e+001 -9.094039e+001  1.775000e+001
      vertex -5.075246e+001 -9.094039e+001  1.775000e+001
    endloop
  endfacet
  facet normal  0.000000e+000  0.000000e+000 -1.000000e+000
    outer loop
      vertex -5.085000e+001 -9.095000e+001  1.775000e+001
      vertex -6.345000e+001 -9.095000e+001  1.775000e+001
      vertex -6.354755e+001 -9.094039e+001  1.775000e+001
    endloop
  endfacet
  facet normal  -0.000000e+000  -0.000000e+000 -1.000000e+000
    outer loop
      vertex -6.345000e+001 -7.735000e+001  1.775000e+001
      vertex -5.085000e+001 -7.735000e+001  1.775000e+001
      vertex -5.075246e+001 -7.735960e+001  1.775000e+001
    endloop
  endfacet
  facet normal  0.000000e+000  0.000000e+000 -1.000000e+000
    outer loop
      vertex -5.075246e+001 -9.094039e+001  1.775000e+001
      vertex -6.354755e+001 -9.094039e+001  1.775000e+001
      vertex -5.065866e+001 -9.091194e+001  1.775000e+001
    endloop
  endfacet
  facet normal  -0.000000e+000  0.000000e+000 -1.000000e+000
    outer loop
      vertex -5.065866e+001 -9.091194e+001  1.775000e+001
      vertex -6.354755e+001 -9.094039e+001  1.775000e+001
      vertex -6.364134e+001 -9.091194e+001  1.775000e+001
    endloop
  endfacet
  facet normal  0.000000e+000  0.000000e+000 -1.000000e+000
    outer loop
      vertex -5.065866e+001 -9.091194e+001  1.775000e+001
      vertex -6.364134e+001 -9.091194e+001  1.775000e+001
      vertex -5.057222e+001 -9.086574e+001  1.775000e+001
    endloop
  endfacet
  facet normal  -0.000000e+000  0.000000e+000 -1.000000e+000
    outer loop
      vertex -5.057222e+001 -9.086574e+001  1.775000e+001
      vertex -6.364134e+001 -9.091194e+001  1.775000e+001
      vertex -6.372779e+001 -9.086574e+001  1.775000e+001
    endloop
  endfacet
  facet normal  0.000000e+000  0.000000e+000 -1.000000e+000
    outer loop
      vertex -5.057222e+001 -9.086574e+001  1.775000e+001
      vertex -6.372779e+001 -9.086574e+001  1.775000e+001
      vertex -5.049644e+001 -9.080355e+001  1.775000e+001
    endloop
  endfacet
  facet normal  -0.000000e+000  0.000000e+000 -1.000000e+000
    outer loop
      vertex -5.049644e+001 -9.080355e+001  1.775000e+001
      vertex -6.372779e+001 -9.086574e+001  1.775000e+001
      vertex -6.380355e+001 -9.080355e+001  1.775000e+001
    endloop
  endfacet
  facet normal  0.000000e+000  0.000000e+000 -1.000000e+000
    outer loop
      vertex -5.049644e+001 -9.080355e+001  1.775000e+001
      vertex -6.380355e+001 -9.080355e+001  1.775000e+001
      vertex -5.043427e+001 -9.072778e+001  1.775000e+001
    endloop
  endfacet
  facet normal  -0.000000e+000  0.000000e+000 -1.000000e+000
    outer loop
      vertex -5.043427e+001 -9.072778e+001  1.775000e+001
      vertex -6.380355e+001 -9.080355e+001  1.775000e+001
      vertex -6.386573e+001 -9.072778e+001  1.775000e+001
    endloop
  endfacet
  facet normal  0.000000e+000  0.000000e+000 -1.000000e+000
    outer loop
      vertex -5.043427e+001 -9.072778e+001  1.775000e+001
      vertex -6.386573e+001 -9.072778e+001  1.775000e+001
      vertex -5.038806e+001 -9.064134e+001  1.775000e+001
    endloop
  endfacet
  facet normal  -0.000000e+000  0.000000e+000 -1.000000e+000
    outer loop
      vertex -5.038806e+001 -9.064134e+001  1.775000e+001
      vertex -6.386573e+001 -9.072778e+001  1.775000e+001
      vertex -6.391194e+001 -9.064134e+001  1.775000e+001
    endloop
  endfacet
  facet normal  0.000000e+000  0.000000e+000 -1.000000e+000
    outer loop
      vertex -5.038806e+001 -9.064134e+001  1.775000e+001
      vertex -6.391194e+001 -9.064134e+001  1.775000e+001
      vertex -5.035961e+001 -9.054755e+001  1.775000e+001
    endloop
  endfacet
  facet normal  -0.000000e+000  0.000000e+000 -1.000000e+000
    outer loop
      vertex -5.035961e+001 -9.054755e+001  1.775000e+001
      vertex -6.391194e+001 -9.064134e+001  1.775000e+001
      vertex -6.394039e+001 -9.054755e+001  1.775000e+001
    endloop
  endfacet
  facet normal  0.000000e+000  0.000000e+000 -1.000000e+000
    outer loop
      vertex -5.035961e+001 -9.054755e+001  1.775000e+001
      vertex -6.394039e+001 -9.054755e+001  1.775000e+001
      vertex -5.035000e+001 -9.045000e+001  1.775000e+001
    endloop
  endfacet
  facet normal  -0.000000e+000  0.000000e+000 -1.000000e+000
    outer loop
      vertex -5.035000e+001 -9.045000e+001  1.775000e+001
      vertex -6.394039e+001 -9.054755e+001  1.775000e+001
      vertex -6.395000e+001 -9.045000e+001  1.775000e+001
    endloop
  endfacet
  facet normal  0.000000e+000  0.000000e+000 -1.000000e+000
    outer loop
      vertex -5.035000e+001 -9.045000e+001  1.775000e+001
      vertex -6.395000e+001 -9.045000e+001  1.775000e+001
      vertex -5.035000e+001 -7.785000e+001  1.775000e+001
    endloop
  endfacet
  facet normal  -0.000000e+000  0.000000e+000 -1.000000e+000
    outer loop
      vertex -5.035000e+001 -7.785000e+001  1.775000e+001
      vertex -6.395000e+001 -9.045000e+001  1.775000e+001
      vertex -6.395000e+001 -7.785000e+001  1.775000e+001
    endloop
  endfacet
  facet normal  0.000000e+000  0.000000e+000 -1.000000e+000
    outer loop
      vertex -5.035000e+001 -7.785000e+001  1.775000e+001
      vertex -6.395000e+001 -7.785000e+001  1.775000e+001
      vertex -5.035961e+001 -7.775246e+001  1.775000e+001
    endloop
  endfacet
  facet normal  -0.000000e+000  0.000000e+000 -1.000000e+000
    outer loop
      vertex -5.035961e+001 -7.775246e+001  1.775000e+001
      vertex -6.395000e+001 -7.785000e+001  1.775000e+001
      vertex -6.394039e+001 -7.775246e+001  1.775000e+001
    endloop
  endfacet
  facet normal  0.000000e+000  0.000000e+000 -1.000000e+000
    outer loop
      vertex -5.035961e+001 -7.775246e+001  1.775000e+001
      vertex -6.394039e+001 -7.775246e+001  1.775000e+001
      vertex -5.038806e+001 -7.765866e+001  1.775000e+001
    endloop
  endfacet
  facet normal  -0.000000e+000  0.000000e+000 -1.000000e+000
    outer loop
      vertex -5.038806e+001 -7.765866e+001  1.775000e+001
      vertex -6.394039e+001 -7.775246e+001  1.775000e+001
      vertex -6.391194e+001 -7.765866e+001  1.775000e+001
    endloop
  endfacet
  facet normal  0.000000e+000  0.000000e+000 -1.000000e+000
    outer loop
      vertex -5.038806e+001 -7.765866e+001  1.775000e+001
      vertex -6.391194e+001 -7.765866e+001  1.775000e+001
      vertex -5.043427e+001 -7.757221e+001  1.775000e+001
    endloop
  endfacet
  facet normal  -0.000000e+000  0.000000e+000 -1.000000e+000
    outer loop
      vertex -5.043427e+001 -7.757221e+001  1.775000e+001
      vertex -6.391194e+001 -7.765866e+001  1.775000e+001
      vertex -6.386573e+001 -7.757221e+001  1.775000e+001
    endloop
  endfacet
  facet normal  0.000000e+000  0.000000e+000 -1.000000e+000
    outer loop
      vertex -5.043427e+001 -7.757221e+001  1.775000e+001
      vertex -6.386573e+001 -7.757221e+001  1.775000e+001
      vertex -5.049644e+001 -7.749644e+001  1.775000e+001
    endloop
  endfacet
  facet normal  -0.000000e+000  0.000000e+000 -1.000000e+000
    outer loop
      vertex -5.049644e+001 -7.749644e+001  1.775000e+001
      vertex -6.386573e+001 -7.757221e+001  1.775000e+001
      vertex -6.380355e+001 -7.749644e+001  1.775000e+001
    endloop
  endfacet
  facet normal  0.000000e+000  0.000000e+000 -9.999999e-001
    outer loop
      vertex -5.049644e+001 -7.749644e+001  1.775000e+001
      vertex -6.380355e+001 -7.749644e+001  1.775000e+001
      vertex -5.057222e+001 -7.743427e+001  1.775000e+001
    endloop
  endfacet
  facet normal  -0.000000e+000  0.000000e+000 -9.999999e-001
    outer loop
      vertex -5.057222e+001 -7.743427e+001  1.775000e+001
      vertex -6.380355e+001 -7.749644e+001  1.775000e+001
      vertex -6.372779e+001 -7.743427e+001  1.775000e+001
    endloop
  endfacet
  facet normal  0.000000e+000  0.000000e+000 -1.000000e+000
    outer loop
      vertex -5.057222e+001 -7.743427e+001  1.775000e+001
      vertex -6.372779e+001 -7.743427e+001  1.775000e+001
      vertex -5.065866e+001 -7.738806e+001  1.775000e+001
    endloop
  endfacet
  facet normal  -0.000000e+000  0.000000e+000 -1.000000e+000
    outer loop
      vertex -5.065866e+001 -7.738806e+001  1.775000e+001
      vertex -6.372779e+001 -7.743427e+001  1.775000e+001
      vertex -6.364134e+001 -7.738806e+001  1.775000e+001
    endloop
  endfacet
  facet normal  0.000000e+000  0.000000e+000 -1.000000e+000
    outer loop
      vertex -5.065866e+001 -7.738806e+001  1.775000e+001
      vertex -6.364134e+001 -7.738806e+001  1.775000e+001
      vertex -5.075246e+001 -7.735960e+001  1.775000e+001
    endloop
  endfacet
  facet normal  -0.000000e+000  0.000000e+000 -1.000000e+000
    outer loop
      vertex -5.075246e+001 -7.735960e+001  1.775000e+001
      vertex -6.364134e+001 -7.738806e+001  1.775000e+001
      vertex -6.354755e+001 -7.735960e+001  1.775000e+001
    endloop
  endfacet
  facet normal  0.000000e+000  0.000000e+000 -9.999999e-001
    outer loop
      vertex -5.075246e+001 -7.735960e+001  1.775000e+001
      vertex -6.354755e+001 -7.735960e+001  1.775000e+001
      vertex -6.345000e+001 -7.735000e+001  1.775000e+001
    endloop
  endfacet
  facet normal  -0.000000e+000  0.000000e+000  1.000000e+000
    outer loop
      vertex -4.940000e+001 -7.540000e+001  2.105000e+001
      vertex -6.490000e+001 -7.540000e+001  2.105000e+001
      vertex -4.920491e+001 -7.541921e+001  2.105000e+001
    endloop
  endfacet
  facet normal  0.000000e+000  0.000000e+000  1.000000e+000
    outer loop
      vertex -4.920491e+001 -7.541921e+001  2.105000e+001
      vertex -6.490000e+001 -7.540000e+001  2.105000e+001
      vertex -6.509509e+001 -7.541921e+001  2.105000e+001
    endloop
  endfacet
  facet normal  -0.000000e+000  0.000000e+000  1.000000e+000
    outer loop
      vertex -4.920491e+001 -7.541921e+001  2.105000e+001
      vertex -6.509509e+001 -7.541921e+001  2.105000e+001
      vertex -4.901731e+001 -7.547612e+001  2.105000e+001
    endloop
  endfacet
  facet normal  0.000000e+000  0.000000e+000  1.000000e+000
    outer loop
      vertex -4.901731e+001 -7.547612e+001  2.105000e+001
      vertex -6.509509e+001 -7.541921e+001  2.105000e+001
      vertex -6.528268e+001 -7.547612e+001  2.105000e+001
    endloop
  endfacet
  facet normal  -0.000000e+000  0.000000e+000  1.000000e+000
    outer loop
      vertex -4.901731e+001 -7.547612e+001  2.105000e+001
      vertex -6.528268e+001 -7.547612e+001  2.105000e+001
      vertex -4.884443e+001 -7.556853e+001  2.105000e+001
    endloop
  endfacet
  facet normal  0.000000e+000  0.000000e+000  1.000000e+000
    outer loop
      vertex -4.884443e+001 -7.556853e+001  2.105000e+001
      vertex -6.528268e+001 -7.547612e+001  2.105000e+001
      vertex -6.545557e+001 -7.556853e+001  2.105000e+001
    endloop
  endfacet
  facet normal  -0.000000e+000  0.000000e+000  1.000000e+000
    outer loop
      vertex -4.884443e+001 -7.556853e+001  2.105000e+001
      vertex -6.545557e+001 -7.556853e+001  2.105000e+001
      vertex -4.869289e+001 -7.569289e+001  2.105000e+001
    endloop
  endfacet
  facet normal  0.000000e+000  0.000000e+000  1.000000e+000
    outer loop
      vertex -4.869289e+001 -7.569289e+001  2.105000e+001
      vertex -6.545557e+001 -7.556853e+001  2.105000e+001
      vertex -6.560711e+001 -7.569289e+001  2.105000e+001
    endloop
  endfacet
  facet normal  -0.000000e+000  0.000000e+000  1.000000e+000
    outer loop
      vertex -4.869289e+001 -7.569289e+001  2.105000e+001
      vertex -6.560711e+001 -7.569289e+001  2.105000e+001
      vertex -4.856853e+001 -7.584443e+001  2.105000e+001
    endloop
  endfacet
  facet normal  0.000000e+000  0.000000e+000  9.999999e-001
    outer loop
      vertex -4.856853e+001 -7.584443e+001  2.105000e+001
      vertex -6.560711e+001 -7.569289e+001  2.105000e+001
      vertex -6.573147e+001 -7.584443e+001  2.105000e+001
    endloop
  endfacet
  facet normal  -0.000000e+000  0.000000e+000  1.000000e+000
    outer loop
      vertex -4.856853e+001 -7.584443e+001  2.105000e+001
      vertex -6.573147e+001 -7.584443e+001  2.105000e+001
      vertex -4.847612e+001 -7.601732e+001  2.105000e+001
    endloop
  endfacet
  facet normal  0.000000e+000  0.000000e+000  1.000000e+000
    outer loop
      vertex -4.847612e+001 -7.601732e+001  2.105000e+001
      vertex -6.573147e+001 -7.584443e+001  2.105000e+001
      vertex -6.582388e+001 -7.601732e+001  2.105000e+001
    endloop
  endfacet
  facet normal  -0.000000e+000  0.000000e+000  1.000000e+000
    outer loop
      vertex -4.847612e+001 -7.601732e+001  2.105000e+001
      vertex -6.582388e+001 -7.601732e+001  2.105000e+001
      vertex -4.841922e+001 -7.620491e+001  2.105000e+001
    endloop
  endfacet
  facet normal  0.000000e+000  0.000000e+000  1.000000e+000
    outer loop
      vertex -4.841922e+001 -7.620491e+001  2.105000e+001
      vertex -6.582388e+001 -7.601732e+001  2.105000e+001
      vertex -6.588078e+001 -7.620491e+001  2.105000e+001
    endloop
  endfacet
  facet normal  -0.000000e+000  0.000000e+000  1.000000e+000
    outer loop
      vertex -4.841922e+001 -7.620491e+001  2.105000e+001
      vertex -6.588078e+001 -7.620491e+001  2.105000e+001
      vertex -4.840000e+001 -7.640000e+001  2.105000e+001
    endloop
  endfacet
  facet normal  0.000000e+000  0.000000e+000  1.000000e+000
    outer loop
      vertex -4.840000e+001 -7.640000e+001  2.105000e+001
      vertex -6.588078e+001 -7.620491e+001  2.105000e+001
      vertex -6.590000e+001 -7.640000e+001  2.105000e+001
    endloop
  endfacet
  facet normal  -0.000000e+000  0.000000e+000  1.000000e+000
    outer loop
      vertex -4.840000e+001 -7.640000e+001  2.105000e+001
      vertex -6.590000e+001 -7.640000e+001  2.105000e+001
      vertex -4.840000e+001 -9.190000e+001  2.105000e+001
    endloop
  endfacet
  facet normal  0.000000e+000  0.000000e+000  1.000000e+000
    outer loop
      vertex -4.840000e+001 -9.190000e+001  2.105000e+001
      vertex -6.590000e+001 -7.640000e+001  2.105000e+001
      vertex -6.590000e+001 -9.190000e+001  2.105000e+001
    endloop
  endfacet
  facet normal  -0.000000e+000  0.000000e+000  1.000000e+000
    outer loop
      vertex -4.840000e+001 -9.190000e+001  2.105000e+001
      vertex -6.590000e+001 -9.190000e+001  2.105000e+001
      vertex -4.841922e+001 -9.209509e+001  2.105000e+001
    endloop
  endfacet
  facet normal  0.000000e+000  0.000000e+000  1.000000e+000
    outer loop
      vertex -4.841922e+001 -9.209509e+001  2.105000e+001
      vertex -6.590000e+001 -9.190000e+001  2.105000e+001
      vertex -6.588078e+001 -9.209509e+001  2.105000e+001
    endloop
  endfacet
  facet normal  -0.000000e+000  0.000000e+000  1.000000e+000
    outer loop
      vertex -4.841922e+001 -9.209509e+001  2.105000e+001
      vertex -6.588078e+001 -9.209509e+001  2.105000e+001
      vertex -4.847612e+001 -9.228268e+001  2.105000e+001
    endloop
  endfacet
  facet normal  0.000000e+000  0.000000e+000  1.000000e+000
    outer loop
      vertex -4.847612e+001 -9.228268e+001  2.105000e+001
      vertex -6.588078e+001 -9.209509e+001  2.105000e+001
      vertex -6.582388e+001 -9.228268e+001  2.105000e+001
    endloop
  endfacet
  facet normal  -0.000000e+000  0.000000e+000  1.000000e+000
    outer loop
      vertex -4.847612e+001 -9.228268e+001  2.105000e+001
      vertex -6.582388e+001 -9.228268e+001  2.105000e+001
      vertex -4.856853e+001 -9.245557e+001  2.105000e+001
    endloop
  endfacet
  facet normal  0.000000e+000  0.000000e+000  1.000000e+000
    outer loop
      vertex -4.856853e+001 -9.245557e+001  2.105000e+001
      vertex -6.582388e+001 -9.228268e+001  2.105000e+001
      vertex -6.573147e+001 -9.245557e+001  2.105000e+001
    endloop
  endfacet
  facet normal  -0.000000e+000  0.000000e+000  9.999999e-001
    outer loop
      vertex -4.856853e+001 -9.245557e+001  2.105000e+001
      vertex -6.573147e+001 -9.245557e+001  2.105000e+001
      vertex -4.869289e+001 -9.260711e+001  2.105000e+001
    endloop
  endfacet
  facet normal  0.000000e+000  0.000000e+000  1.000000e+000
    outer loop
      vertex -4.869289e+001 -9.260711e+001  2.105000e+001
      vertex -6.573147e+001 -9.245557e+001  2.105000e+001
      vertex -6.560711e+001 -9.260711e+001  2.105000e+001
    endloop
  endfacet
  facet normal  -0.000000e+000  0.000000e+000  1.000000e+000
    outer loop
      vertex -4.869289e+001 -9.260711e+001  2.105000e+001
      vertex -6.560711e+001 -9.260711e+001  2.105000e+001
      vertex -4.884443e+001 -9.273147e+001  2.105000e+001
    endloop
  endfacet
  facet normal  0.000000e+000  0.000000e+000  1.000000e+000
    outer loop
      vertex -4.884443e+001 -9.273147e+001  2.105000e+001
      vertex -6.560711e+001 -9.260711e+001  2.105000e+001
      vertex -6.545557e+001 -9.273147e+001  2.105000e+001
    endloop
  endfacet
  facet normal  -0.000000e+000  0.000000e+000  1.000000e+000
    outer loop
      vertex -4.884443e+001 -9.273147e+001  2.105000e+001
      vertex -6.545557e+001 -9.273147e+001  2.105000e+001
      vertex -4.901731e+001 -9.282388e+001  2.105000e+001
    endloop
  endfacet
  facet normal  0.000000e+000  0.000000e+000  1.000000e+000
    outer loop
      vertex -4.901731e+001 -9.282388e+001  2.105000e+001
      vertex -6.545557e+001 -9.273147e+001  2.105000e+001
      vertex -6.528268e+001 -9.282388e+001  2.105000e+001
    endloop
  endfacet
  facet normal  -0.000000e+000  0.000000e+000  1.000000e+000
    outer loop
      vertex -4.901731e+001 -9.282388e+001  2.105000e+001
      vertex -6.528268e+001 -9.282388e+001  2.105000e+001
      vertex -4.920491e+001 -9.288078e+001  2.105000e+001
    endloop
  endfacet
  facet normal  0.000000e+000  0.000000e+000  1.000000e+000
    outer loop
      vertex -4.920491e+001 -9.288078e+001  2.105000e+001
      vertex -6.528268e+001 -9.282388e+001  2.105000e+001
      vertex -6.509509e+001 -9.288078e+001  2.105000e+001
    endloop
  endfacet
  facet normal  -0.000000e+000  0.000000e+000  1.000000e+000
    outer loop
      vertex -4.920491e+001 -9.288078e+001  2.105000e+001
      vertex -6.509509e+001 -9.288078e+001  2.105000e+001
      vertex -4.940000e+001 -9.290000e+001  2.105000e+001
    endloop
  endfacet
  facet normal  0.000000e+000  0.000000e+000  1.000000e+000
    outer loop
      vertex -4.940000e+001 -9.290000e+001  2.105000e+001
      vertex -6.509509e+001 -9.288078e+001  2.105000e+001
      vertex -6.490000e+001 -9.290000e+001  2.105000e+001
    endloop
  endfacet
  facet normal  9.799696e-002  9.951867e-001  0.000000e+000
    outer loop
      vertex -4.940000e+001 -7.540000e+001  1.905000e+001
      vertex -4.940000e+001 -7.540000e+001  2.105000e+001
      vertex -4.920491e+001 -7.541921e+001  1.905000e+001
    endloop
  endfacet
  facet normal  9.799696e-002  9.951867e-001  -0.000000e+000
    outer loop
      vertex -4.920491e+001 -7.541921e+001  1.905000e+001
      vertex -4.940000e+001 -7.540000e+001  2.105000e+001
      vertex -4.920491e+001 -7.541921e+001  2.105000e+001
    endloop
  endfacet
  facet normal  2.902904e-001  9.569386e-001  0.000000e+000
    outer loop
      vertex -4.920491e+001 -7.541921e+001  1.905000e+001
      vertex -4.920491e+001 -7.541921e+001  2.105000e+001
      vertex -4.901731e+001 -7.547612e+001  1.905000e+001
    endloop
  endfacet
  facet normal  2.902904e-001  9.569386e-001  -0.000000e+000
    outer loop
      vertex -4.901731e+001 -7.547612e+001  1.905000e+001
      vertex -4.920491e+001 -7.541921e+001  2.105000e+001
      vertex -4.901731e+001 -7.547612e+001  2.105000e+001
    endloop
  endfacet
  facet normal  4.713880e-001  8.819259e-001  0.000000e+000
    outer loop
      vertex -4.901731e+001 -7.547612e+001  1.905000e+001
      vertex -4.901731e+001 -7.547612e+001  2.105000e+001
      vertex -4.884443e+001 -7.556853e+001  1.905000e+001
    endloop
  endfacet
  facet normal  4.713880e-001  8.819259e-001  -0.000000e+000
    outer loop
      vertex -4.884443e+001 -7.556853e+001  1.905000e+001
      vertex -4.901731e+001 -7.547612e+001  2.105000e+001
      vertex -4.884443e+001 -7.556853e+001  2.105000e+001
    endloop
  endfacet
  facet normal  6.344091e-001  7.729975e-001  0.000000e+000
    outer loop
      vertex -4.884443e+001 -7.556853e+001  1.905000e+001
      vertex -4.884443e+001 -7.556853e+001  2.105000e+001
      vertex -4.869289e+001 -7.569289e+001  1.905000e+001
    endloop
  endfacet
  facet normal  6.344091e-001  7.729975e-001  -0.000000e+000
    outer loop
      vertex -4.869289e+001 -7.569289e+001  1.905000e+001
      vertex -4.884443e+001 -7.556853e+001  2.105000e+001
      vertex -4.869289e+001 -7.569289e+001  2.105000e+001
    endloop
  endfacet
  facet normal  7.730070e-001  6.343974e-001  0.000000e+000
    outer loop
      vertex -4.869289e+001 -7.569289e+001  1.905000e+001
      vertex -4.869289e+001 -7.569289e+001  2.105000e+001
      vertex -4.856853e+001 -7.584443e+001  1.905000e+001
    endloop
  endfacet
  facet normal  7.730070e-001  6.343974e-001  -0.000000e+000
    outer loop
      vertex -4.856853e+001 -7.584443e+001  1.905000e+001
      vertex -4.869289e+001 -7.569289e+001  2.105000e+001
      vertex -4.856853e+001 -7.584443e+001  2.105000e+001
    endloop
  endfacet
  facet normal  8.819222e-001  4.713950e-001  0.000000e+000
    outer loop
      vertex -4.856853e+001 -7.584443e+001  1.905000e+001
      vertex -4.856853e+001 -7.584443e+001  2.105000e+001
      vertex -4.847612e+001 -7.601732e+001  1.905000e+001
    endloop
  endfacet
  facet normal  8.819222e-001  4.713950e-001  -0.000000e+000
    outer loop
      vertex -4.847612e+001 -7.601732e+001  1.905000e+001
      vertex -4.856853e+001 -7.584443e+001  2.105000e+001
      vertex -4.847612e+001 -7.601732e+001  2.105000e+001
    endloop
  endfacet
  facet normal  9.569423e-001  2.902780e-001  0.000000e+000
    outer loop
      vertex -4.847612e+001 -7.601732e+001  1.905000e+001
      vertex -4.847612e+001 -7.601732e+001  2.105000e+001
      vertex -4.841922e+001 -7.620491e+001  1.905000e+001
    endloop
  endfacet
  facet normal  9.569423e-001  2.902780e-001  -0.000000e+000
    outer loop
      vertex -4.841922e+001 -7.620491e+001  1.905000e+001
      vertex -4.847612e+001 -7.601732e+001  2.105000e+001
      vertex -4.841922e+001 -7.620491e+001  2.105000e+001
    endloop
  endfacet
  facet normal  9.951848e-001  9.801622e-002  0.000000e+000
    outer loop
      vertex -4.841922e+001 -7.620491e+001  1.905000e+001
      vertex -4.841922e+001 -7.620491e+001  2.105000e+001
      vertex -4.840000e+001 -7.640000e+001  1.905000e+001
    endloop
  endfacet
  facet normal  9.951848e-001  9.801622e-002  -0.000000e+000
    outer loop
      vertex -4.840000e+001 -7.640000e+001  1.905000e+001
      vertex -4.841922e+001 -7.620491e+001  2.105000e+001
      vertex -4.840000e+001 -7.640000e+001  2.105000e+001
    endloop
  endfacet
  facet normal  0.000000e+000  1.000000e+000  0.000000e+000
    outer loop
      vertex -6.490000e+001 -7.540000e+001  2.105000e+001
      vertex -4.940000e+001 -7.540000e+001  2.105000e+001
      vertex -6.490000e+001 -7.540000e+001  1.905000e+001
    endloop
  endfacet
  facet normal  0.000000e+000  1.000000e+000  0.000000e+000
    outer loop
      vertex -6.490000e+001 -7.540000e+001  1.905000e+001
      vertex -4.940000e+001 -7.540000e+001  2.105000e+001
      vertex -4.940000e+001 -7.540000e+001  1.905000e+001
    endloop
  endfacet
  facet normal -9.951829e-001  9.803550e-002  0.000000e+000
    outer loop
      vertex -6.590000e+001 -7.640000e+001  1.905000e+001
      vertex -6.590000e+001 -7.640000e+001  2.105000e+001
      vertex -6.588078e+001 -7.620491e+001  1.905000e+001
    endloop
  endfacet
  facet normal -9.951829e-001  9.803550e-002  0.000000e+000
    outer loop
      vertex -6.588078e+001 -7.620491e+001  1.905000e+001
      vertex -6.590000e+001 -7.640000e+001  2.105000e+001
      vertex -6.588078e+001 -7.620491e+001  2.105000e+001
    endloop
  endfacet
  facet normal -9.569477e-001  2.902601e-001  0.000000e+000
    outer loop
      vertex -6.588078e+001 -7.620491e+001  1.905000e+001
      vertex -6.588078e+001 -7.620491e+001  2.105000e+001
      vertex -6.582388e+001 -7.601732e+001  1.905000e+001
    endloop
  endfacet
  facet normal -9.569477e-001  2.902601e-001  0.000000e+000
    outer loop
      vertex -6.582388e+001 -7.601732e+001  1.905000e+001
      vertex -6.588078e+001 -7.620491e+001  2.105000e+001
      vertex -6.582388e+001 -7.601732e+001  2.105000e+001
    endloop
  endfacet
  facet normal -8.819141e-001  4.714102e-001  0.000000e+000
    outer loop
      vertex -6.582388e+001 -7.601732e+001  1.905000e+001
      vertex -6.582388e+001 -7.601732e+001  2.105000e+001
      vertex -6.573147e+001 -7.584443e+001  1.905000e+001
    endloop
  endfacet
  facet normal -8.819141e-001  4.714102e-001  0.000000e+000
    outer loop
      vertex -6.573147e+001 -7.584443e+001  1.905000e+001
      vertex -6.582388e+001 -7.601732e+001  2.105000e+001
      vertex -6.573147e+001 -7.584443e+001  2.105000e+001
    endloop
  endfacet
  facet normal -7.730166e-001  6.343858e-001  0.000000e+000
    outer loop
      vertex -6.573147e+001 -7.584443e+001  1.905000e+001
      vertex -6.573147e+001 -7.584443e+001  2.105000e+001
      vertex -6.560711e+001 -7.569289e+001  1.905000e+001
    endloop
  endfacet
  facet normal -7.730166e-001  6.343858e-001  0.000000e+000
    outer loop
      vertex -6.560711e+001 -7.569289e+001  1.905000e+001
      vertex -6.573147e+001 -7.584443e+001  2.105000e+001
      vertex -6.560711e+001 -7.569289e+001  2.105000e+001
    endloop
  endfacet
  facet normal -6.344091e-001  7.729975e-001  0.000000e+000
    outer loop
      vertex -6.560711e+001 -7.569289e+001  1.905000e+001
      vertex -6.560711e+001 -7.569289e+001  2.105000e+001
      vertex -6.545557e+001 -7.556853e+001  1.905000e+001
    endloop
  endfacet
  facet normal -6.344091e-001  7.729975e-001  0.000000e+000
    outer loop
      vertex -6.545557e+001 -7.556853e+001  1.905000e+001
      vertex -6.560711e+001 -7.569289e+001  2.105000e+001
      vertex -6.545557e+001 -7.556853e+001  2.105000e+001
    endloop
  endfacet
  facet normal -4.713799e-001  8.819302e-001  0.000000e+000
    outer loop
      vertex -6.545557e+001 -7.556853e+001  1.905000e+001
      vertex -6.545557e+001 -7.556853e+001  2.105000e+001
      vertex -6.528268e+001 -7.547612e+001  1.905000e+001
    endloop
  endfacet
  facet normal -4.713799e-001  8.819302e-001  0.000000e+000
    outer loop
      vertex -6.528268e+001 -7.547612e+001  1.905000e+001
      vertex -6.545557e+001 -7.556853e+001  2.105000e+001
      vertex -6.528268e+001 -7.547612e+001  2.105000e+001
    endloop
  endfacet
  facet normal -2.902958e-001  9.569370e-001  0.000000e+000
    outer loop
      vertex -6.528268e+001 -7.547612e+001  1.905000e+001
      vertex -6.528268e+001 -7.547612e+001  2.105000e+001
      vertex -6.509509e+001 -7.541921e+001  1.905000e+001
    endloop
  endfacet
  facet normal -2.902958e-001  9.569370e-001  0.000000e+000
    outer loop
      vertex -6.509509e+001 -7.541921e+001  1.905000e+001
      vertex -6.528268e+001 -7.547612e+001  2.105000e+001
      vertex -6.509509e+001 -7.541921e+001  2.105000e+001
    endloop
  endfacet
  facet normal -9.799696e-002  9.951867e-001  0.000000e+000
    outer loop
      vertex -6.509509e+001 -7.541921e+001  1.905000e+001
      vertex -6.509509e+001 -7.541921e+001  2.105000e+001
      vertex -6.490000e+001 -7.540000e+001  1.905000e+001
    endloop
  endfacet
  facet normal -9.799696e-002  9.951867e-001  0.000000e+000
    outer loop
      vertex -6.490000e+001 -7.540000e+001  1.905000e+001
      vertex -6.509509e+001 -7.541921e+001  2.105000e+001
      vertex -6.490000e+001 -7.540000e+001  2.105000e+001
    endloop
  endfacet
  facet normal -1.000000e+000  -0.000000e+000  0.000000e+000
    outer loop
      vertex -6.590000e+001 -9.190000e+001  2.105000e+001
      vertex -6.590000e+001 -7.640000e+001  2.105000e+001
      vertex -6.590000e+001 -9.190000e+001  1.905000e+001
    endloop
  endfacet
  facet normal -1.000000e+000  0.000000e+000  0.000000e+000
    outer loop
      vertex -6.590000e+001 -9.190000e+001  1.905000e+001
      vertex -6.590000e+001 -7.640000e+001  2.105000e+001
      vertex -6.590000e+001 -7.640000e+001  1.905000e+001
    endloop
  endfacet
  facet normal -9.803550e-002 -9.951829e-001  -0.000000e+000
    outer loop
      vertex -6.490000e+001 -9.290000e+001  1.905000e+001
      vertex -6.490000e+001 -9.290000e+001  2.105000e+001
      vertex -6.509509e+001 -9.288078e+001  1.905000e+001
    endloop
  endfacet
  facet normal -9.803550e-002 -9.951829e-001  0.000000e+000
    outer loop
      vertex -6.509509e+001 -9.288078e+001  1.905000e+001
      vertex -6.490000e+001 -9.290000e+001  2.105000e+001
      vertex -6.509509e+001 -9.288078e+001  2.105000e+001
    endloop
  endfacet
  facet normal -2.902601e-001 -9.569477e-001  -0.000000e+000
    outer loop
      vertex -6.509509e+001 -9.288078e+001  1.905000e+001
      vertex -6.509509e+001 -9.288078e+001  2.105000e+001
      vertex -6.528268e+001 -9.282388e+001  1.905000e+001
    endloop
  endfacet
  facet normal -2.902601e-001 -9.569477e-001  0.000000e+000
    outer loop
      vertex -6.528268e+001 -9.282388e+001  1.905000e+001
      vertex -6.509509e+001 -9.288078e+001  2.105000e+001
      vertex -6.528268e+001 -9.282388e+001  2.105000e+001
    endloop
  endfacet
  facet normal -4.714102e-001 -8.819141e-001  -0.000000e+000
    outer loop
      vertex -6.528268e+001 -9.282388e+001  1.905000e+001
      vertex -6.528268e+001 -9.282388e+001  2.105000e+001
      vertex -6.545557e+001 -9.273147e+001  1.905000e+001
    endloop
  endfacet
  facet normal -4.714102e-001 -8.819141e-001  0.000000e+000
    outer loop
      vertex -6.545557e+001 -9.273147e+001  1.905000e+001
      vertex -6.528268e+001 -9.282388e+001  2.105000e+001
      vertex -6.545557e+001 -9.273147e+001  2.105000e+001
    endloop
  endfacet
  facet normal -6.343858e-001 -7.730166e-001  -0.000000e+000
    outer loop
      vertex -6.545557e+001 -9.273147e+001  1.905000e+001
      vertex -6.545557e+001 -9.273147e+001  2.105000e+001
      vertex -6.560711e+001 -9.260711e+001  1.905000e+001
    endloop
  endfacet
  facet normal -6.343858e-001 -7.730166e-001  0.000000e+000
    outer loop
      vertex -6.560711e+001 -9.260711e+001  1.905000e+001
      vertex -6.545557e+001 -9.273147e+001  2.105000e+001
      vertex -6.560711e+001 -9.260711e+001  2.105000e+001
    endloop
  endfacet
  facet normal -7.730166e-001 -6.343858e-001  -0.000000e+000
    outer loop
      vertex -6.560711e+001 -9.260711e+001  1.905000e+001
      vertex -6.560711e+001 -9.260711e+001  2.105000e+001
      vertex -6.573147e+001 -9.245557e+001  1.905000e+001
    endloop
  endfacet
  facet normal -7.730166e-001 -6.343858e-001  0.000000e+000
    outer loop
      vertex -6.573147e+001 -9.245557e+001  1.905000e+001
      vertex -6.560711e+001 -9.260711e+001  2.105000e+001
      vertex -6.573147e+001 -9.245557e+001  2.105000e+001
    endloop
  endfacet
  facet normal -8.819141e-001 -4.714102e-001  -0.000000e+000
    outer loop
      vertex -6.573147e+001 -9.245557e+001  1.905000e+001
      vertex -6.573147e+001 -9.245557e+001  2.105000e+001
      vertex -6.582388e+001 -9.228268e+001  1.905000e+001
    endloop
  endfacet
  facet normal -8.819141e-001 -4.714102e-001  0.000000e+000
    outer loop
      vertex -6.582388e+001 -9.228268e+001  1.905000e+001
      vertex -6.573147e+001 -9.245557e+001  2.105000e+001
      vertex -6.582388e+001 -9.228268e+001  2.105000e+001
    endloop
  endfacet
  facet normal -9.569477e-001 -2.902601e-001  -0.000000e+000
    outer loop
      vertex -6.582388e+001 -9.228268e+001  1.905000e+001
      vertex -6.582388e+001 -9.228268e+001  2.105000e+001
      vertex -6.588078e+001 -9.209509e+001  1.905000e+001
    endloop
  endfacet
  facet normal -9.569477e-001 -2.902601e-001  0.000000e+000
    outer loop
      vertex -6.588078e+001 -9.209509e+001  1.905000e+001
      vertex -6.582388e+001 -9.228268e+001  2.105000e+001
      vertex -6.588078e+001 -9.209509e+001  2.105000e+001
    endloop
  endfacet
  facet normal -9.951829e-001 -9.803550e-002  -0.000000e+000
    outer loop
      vertex -6.588078e+001 -9.209509e+001  1.905000e+001
      vertex -6.588078e+001 -9.209509e+001  2.105000e+001
      vertex -6.590000e+001 -9.190000e+001  1.905000e+001
    endloop
  endfacet
  facet normal -9.951829e-001 -9.803550e-002  0.000000e+000
    outer loop
      vertex -6.590000e+001 -9.190000e+001  1.905000e+001
      vertex -6.588078e+001 -9.209509e+001  2.105000e+001
      vertex -6.590000e+001 -9.190000e+001  2.105000e+001
    endloop
  endfacet
  facet normal  0.000000e+000 -1.000000e+000  0.000000e+000
    outer loop
      vertex -4.940000e+001 -9.290000e+001  2.105000e+001
      vertex -6.490000e+001 -9.290000e+001  2.105000e+001
      vertex -4.940000e+001 -9.290000e+001  1.905000e+001
    endloop
  endfacet
  facet normal  0.000000e+000 -1.000000e+000  0.000000e+000
    outer loop
      vertex -4.940000e+001 -9.290000e+001  1.905000e+001
      vertex -6.490000e+001 -9.290000e+001  2.105000e+001
      vertex -6.490000e+001 -9.290000e+001  1.905000e+001
    endloop
  endfacet
  facet normal  9.951848e-001 -9.801622e-002  0.000000e+000
    outer loop
      vertex -4.840000e+001 -9.190000e+001  1.905000e+001
      vertex -4.840000e+001 -9.190000e+001  2.105000e+001
      vertex -4.841922e+001 -9.209509e+001  1.905000e+001
    endloop
  endfacet
  facet normal  9.951848e-001 -9.801622e-002  0.000000e+000
    outer loop
      vertex -4.841922e+001 -9.209509e+001  1.905000e+001
      vertex -4.840000e+001 -9.190000e+001  2.105000e+001
      vertex -4.841922e+001 -9.209509e+001  2.105000e+001
    endloop
  endfacet
  facet normal  9.569423e-001 -2.902780e-001  0.000000e+000
    outer loop
      vertex -4.841922e+001 -9.209509e+001  1.905000e+001
      vertex -4.841922e+001 -9.209509e+001  2.105000e+001
      vertex -4.847612e+001 -9.228268e+001  1.905000e+001
    endloop
  endfacet
  facet normal  9.569423e-001 -2.902780e-001  0.000000e+000
    outer loop
      vertex -4.847612e+001 -9.228268e+001  1.905000e+001
      vertex -4.841922e+001 -9.209509e+001  2.105000e+001
      vertex -4.847612e+001 -9.228268e+001  2.105000e+001
    endloop
  endfacet
  facet normal  8.819222e-001 -4.713950e-001  0.000000e+000
    outer loop
      vertex -4.847612e+001 -9.228268e+001  1.905000e+001
      vertex -4.847612e+001 -9.228268e+001  2.105000e+001
      vertex -4.856853e+001 -9.245557e+001  1.905000e+001
    endloop
  endfacet
  facet normal  8.819222e-001 -4.713950e-001  0.000000e+000
    outer loop
      vertex -4.856853e+001 -9.245557e+001  1.905000e+001
      vertex -4.847612e+001 -9.228268e+001  2.105000e+001
      vertex -4.856853e+001 -9.245557e+001  2.105000e+001
    endloop
  endfacet
  facet normal  7.730070e-001 -6.343974e-001  0.000000e+000
    outer loop
      vertex -4.856853e+001 -9.245557e+001  1.905000e+001
      vertex -4.856853e+001 -9.245557e+001  2.105000e+001
      vertex -4.869289e+001 -9.260711e+001  1.905000e+001
    endloop
  endfacet
  facet normal  7.730070e-001 -6.343974e-001  0.000000e+000
    outer loop
      vertex -4.869289e+001 -9.260711e+001  1.905000e+001
      vertex -4.856853e+001 -9.245557e+001  2.105000e+001
      vertex -4.869289e+001 -9.260711e+001  2.105000e+001
    endloop
  endfacet
  facet normal  6.343858e-001 -7.730166e-001  0.000000e+000
    outer loop
      vertex -4.869289e+001 -9.260711e+001  1.905000e+001
      vertex -4.869289e+001 -9.260711e+001  2.105000e+001
      vertex -4.884443e+001 -9.273147e+001  1.905000e+001
    endloop
  endfacet
  facet normal  6.343858e-001 -7.730166e-001  0.000000e+000
    outer loop
      vertex -4.884443e+001 -9.273147e+001  1.905000e+001
      vertex -4.869289e+001 -9.260711e+001  2.105000e+001
      vertex -4.884443e+001 -9.273147e+001  2.105000e+001
    endloop
  endfacet
  facet normal  4.714182e-001 -8.819097e-001  0.000000e+000
    outer loop
      vertex -4.884443e+001 -9.273147e+001  1.905000e+001
      vertex -4.884443e+001 -9.273147e+001  2.105000e+001
      vertex -4.901731e+001 -9.282388e+001  1.905000e+001
    endloop
  endfacet
  facet normal  4.714182e-001 -8.819097e-001  0.000000e+000
    outer loop
      vertex -4.901731e+001 -9.282388e+001  1.905000e+001
      vertex -4.884443e+001 -9.273147e+001  2.105000e+001
      vertex -4.901731e+001 -9.282388e+001  2.105000e+001
    endloop
  endfacet
  facet normal  2.902547e-001 -9.569494e-001  0.000000e+000
    outer loop
      vertex -4.901731e+001 -9.282388e+001  1.905000e+001
      vertex -4.901731e+001 -9.282388e+001  2.105000e+001
      vertex -4.920491e+001 -9.288078e+001  1.905000e+001
    endloop
  endfacet
  facet normal  2.902547e-001 -9.569494e-001  0.000000e+000
    outer loop
      vertex -4.920491e+001 -9.288078e+001  1.905000e+001
      vertex -4.901731e+001 -9.282388e+001  2.105000e+001
      vertex -4.920491e+001 -9.288078e+001  2.105000e+001
    endloop
  endfacet
  facet normal  9.803550e-002 -9.951829e-001  0.000000e+000
    outer loop
      vertex -4.920491e+001 -9.288078e+001  1.905000e+001
      vertex -4.920491e+001 -9.288078e+001  2.105000e+001
      vertex -4.940000e+001 -9.290000e+001  1.905000e+001
    endloop
  endfacet
  facet normal  9.803550e-002 -9.951829e-001  0.000000e+000
    outer loop
      vertex -4.940000e+001 -9.290000e+001  1.905000e+001
      vertex -4.920491e+001 -9.288078e+001  2.105000e+001
      vertex -4.940000e+001 -9.290000e+001  2.105000e+001
    endloop
  endfacet
  facet normal  1.000000e+000  -0.000000e+000  0.000000e+000
    outer loop
      vertex -4.840000e+001 -7.640000e+001  2.105000e+001
      vertex -4.840000e+001 -9.190000e+001  2.105000e+001
      vertex -4.840000e+001 -7.640000e+001  1.905000e+001
    endloop
  endfacet
  facet normal  1.000000e+000  0.000000e+000  0.000000e+000
    outer loop
      vertex -4.840000e+001 -7.640000e+001  1.905000e+001
      vertex -4.840000e+001 -9.190000e+001  2.105000e+001
      vertex -4.840000e+001 -9.190000e+001  1.905000e+001
    endloop
  endfacet
endsolid SHAPE STL
